<?xml version="1.0" standalone="no"?>
<!DOCTYPE svg PUBLIC "-//W3C//DTD SVG 1.1//EN" "http://www.w3.org/Graphics/SVG/1.1/DTD/svg11.dtd">
<svg xmlns="http://www.w3.org/2000/svg" xmlns:xlink="http://www.w3.org/1999/xlink" version="1.0.1">
  <metadata>tooIcon</metadata>
  <defs>
    <font id="tooIcon" horiz-adv-x="480">
      <font-face font-family="tooIcon" font-weight="normal" font-style="normal" units-per-em="480" ascent="480" descent="0"/>
      <missing-glyph/>
      <glyph glyph-name="arrow-back-fill" unicode="&#xe09c;" d="M166 328V282C166 268 150 262 140 270L60 336C52 344 52 354 60 362L140 428C150 436 166 430 166 416V370C166 370 166 370 166 370L260 370C340 370 412 312 424 234 438 136 362 50 266 50H102C94 50 86 58 86 66V74C86 82 94 90 102 90L260 90C326 90 384 140 386 206 388 274 334 330 266 330L166 328C166 330 166 328 166 328Z"/>
      <glyph glyph-name="arrow-donw-left-fill" unicode="&#xe09d;" d="M250 222L322 150C332 140 324 122 310 122H140C132 122 124 130 124 138V310C124 324 142 332 152 322L224 250 326 352C332 358 342 358 348 352L354 346C360 340 360 330 354 324L250 222Z"/>
      <glyph glyph-name="arrow-down-alt-fill" unicode="&#xe09e;" d="M228 188L146 270C138 280 144 296 158 296H320C334 296 342 278 332 268L250 186C246 182 234 182 228 188Z"/>
      <glyph glyph-name="arrow-left-alt-fill" unicode="&#xe09f;" d="M188 252L270 334C280 344 298 336 298 322V160C298 146 280 138 270 148L188 230C182 234 182 246 188 252Z"/>
      <glyph glyph-name="arrow-right-alt-fill" unicode="&#xe0a0;" d="M292 252L210 334C200 342 184 336 184 322V160C184 146 202 138 212 148L294 230C298 234 298 246 292 252Z"/>
      <glyph glyph-name="arrow-up-alt-fill" unicode="&#xe0a1;" d="M228 292L146 210C136 200 144 182 158 182L320 182C334 182 342 200 332 210L250 292C246 298 234 298 228 292Z"/>
      <glyph glyph-name="arrow-donw-right-fill" unicode="&#xe0a2;" d="M230 222L158 150C148 140 156 122 170 122H340C348 122 356 130 356 138V310C356 324 338 332 328 322L256 250 156 352C150 358 140 358 134 352L128 346C122 340 122 330 128 324L230 222Z"/>
      <glyph glyph-name="arrow-up-left-fill" unicode="&#xe0a3;" d="M250 258L322 330C332 340 324 358 310 358H140C130 356 124 350 124 340V168C124 154 142 146 152 156L224 228 326 126C332 120 342 120 348 126L354 132C360 138 360 148 354 154L250 258Z"/>
      <glyph glyph-name="arrow-up-right-fill" unicode="&#xe0a4;" d="M230 258L158 330C148 340 156 356 170 356H340C348 356 356 348 356 340V168C356 154 338 146 328 156L256 228 154 126C148 120 138 120 132 126L126 132C120 138 120 148 126 154L230 258Z"/>
      <glyph glyph-name="arrow-down-fill" unicode="&#xe0a5;" d="M260 236H362C376 236 384 218 374 208L252 86C246 80 236 80 230 86L108 208C98 218 106 236 120 236H220V380C220 388 228 396 236 396H244C252 396 260 390 260 380V236Z"/>
      <glyph glyph-name="arrow-up-fill" unicode="&#xe0a6;" d="M260 244H362C376 244 384 262 374 272L252 394C246 400 236 400 230 394L108 272C98 262 106 244 120 244H220V100C220 92 228 84 236 84H244C252 84 260 92 260 100V244Z"/>
      <glyph glyph-name="arrow-left-fill" unicode="&#xe0a7;" d="M236 220V118C236 104 218 96 208 106L86 228C80 234 80 244 86 250L208 372C218 382 236 374 236 360V260H380C388 260 396 252 396 244V236C396 228 388 220 380 220H236Z"/>
      <glyph glyph-name="arrow-right-fill" unicode="&#xe0a8;" d="M244 220V118C244 104 262 96 272 106L394 228C400 234 400 244 394 250L272 372C262 382 244 374 244 360V260H100C92 260 84 252 84 244V236C84 228 90 220 100 220H244Z"/>
      <glyph glyph-name="arrow-forward-fill" unicode="&#xe0a9;" d="M314 328V282C314 268 330 262 340 270L420 336C428 342 428 354 420 360L340 426C330 434 314 428 314 414V368C314 368 314 368 314 368L220 368C140 368 68 310 56 232 42 134 118 48 214 48H378C386 48 394 56 394 64V72C394 80 386 88 378 88L220 88C154 88 96 138 94 204 92 272 146 328 214 328L314 328C314 330 314 328 314 328Z"/>
      <glyph glyph-name="arrow-right-left-fill" unicode="&#xe0aa;" d="M320 160V202C320 216 338 224 348 214L410 152C416 146 416 136 410 130L348 68C338 58 320 66 320 80V120H96C88 120 80 128 80 136V144C80 152 88 160 96 160H320ZM160 402V360L384 360C392 360 400 352 400 344V336C400 328 392 320 384 320H160V278C160 264 142 256 132 266L72 328C66 334 66 344 72 350L134 412C142 422 160 416 160 402Z"/>
      <glyph glyph-name="arrow-up-down-fill" unicode="&#xe0ab;" d="M320 160H278C264 160 256 142 266 132L328 70C334 64 344 64 350 70L412 132C422 142 414 160 400 160H360L360 384C360 392 352 400 344 400L336 400C328 400 320 392 320 384L320 160ZM78 320L120 320 120 96C120 88 128 80 136 80H144C152 80 160 88 160 96L160 320H202C216 320 224 338 214 348L152 408C146 414 136 414 130 408L68 348C58 338 64 320 78 320Z"/>
      <glyph glyph-name="enter-fill" unicode="&#xe0ac;" d="M390 338H382C374 338 366 330 366 322L366 238H166V280C166 294 148 302 138 292L76 230C70 224 70 214 76 208L140 146C150 136 168 144 168 158V200L392 200C400 200 408 208 408 216V322C406 332 400 338 390 338Z"/>
      <glyph glyph-name="arrow-back-line" unicode="&#xe0ad;" d="M124 324L164 284C170 278 170 268 164 262L158 256C152 250 142 250 136 256L58 332C52 338 52 348 58 354L134 430C140 436 150 436 156 430L162 424C168 418 168 408 162 402L122 362 260 362C346 362 420 298 426 212 432 118 358 42 266 42H102C94 42 86 50 86 58V66C86 74 94 82 102 82L262 82C328 82 386 132 386 198 388 266 334 322 266 322H124Z"/>
      <glyph glyph-name="arrow-forward-line" unicode="&#xe0ae;" d="M356 324L316 284C310 278 310 268 316 262L322 256C328 250 338 250 344 256L420 332C426 338 426 348 420 354L344 430C338 436 328 436 322 430L316 424C310 418 310 408 316 402L356 362 218 362C132 362 58 298 52 212 46 118 120 42 212 42H376C384 42 392 50 392 58V66C392 74 384 82 376 82L216 82C150 82 92 132 92 198 90 266 144 322 212 322H356Z"/>
      <glyph glyph-name="arrow-donw-left-line" unicode="&#xe0af;" d="M164 192L324 352C330 358 340 358 346 352L352 346C358 340 358 330 352 324L192 164H328C336 164 344 156 344 148V140C344 132 336 124 328 124H140C132 124 124 132 124 140V328C124 336 132 344 140 344H148C156 344 164 336 164 328V192L164 192Z"/>
      <glyph glyph-name="arrow-donw-right-line" unicode="&#xe0b0;" d="M316 192L156 352C150 358 140 358 134 352L128 346C122 340 122 330 128 324L288 164H152C144 164 136 156 136 148V140C136 132 144 124 152 124H340C348 124 356 132 356 140V328C356 336 348 344 340 344H332C324 344 316 336 316 328V192L316 192Z"/>
      <glyph glyph-name="arrow-up-right-line" unicode="&#xe0b1;" d="M316 288L156 128C150 122 140 122 134 128L128 134C122 140 122 150 128 156L288 316H152C144 316 136 324 136 332V340C136 348 144 356 152 356H340C348 356 356 348 356 340V152C356 144 348 136 340 136H332C324 136 316 144 316 152V288L316 288Z"/>
      <glyph glyph-name="arrow-up-left-line" unicode="&#xe0b2;" d="M164 288L324 128C330 122 340 122 346 128L352 134C358 140 358 150 352 156L192 316H328C336 316 344 324 344 332V340C344 348 336 356 328 356H140C130 356 124 350 124 340V152C124 144 132 136 140 136H148C156 136 164 144 164 152V288L164 288Z"/>
      <glyph glyph-name="arrow-down-line" unicode="&#xe0b3;" d="M260 154L356 250C362 256 372 256 378 250L384 244C390 238 390 228 384 222L252 90C246 84 236 84 230 90L96 220C90 226 90 236 96 242L102 248C108 254 118 254 124 248L220 152V380C220 388 228 396 236 396H244C252 396 260 390 260 380V154Z"/>
      <glyph glyph-name="arrow-up-line" unicode="&#xe0b4;" d="M260 326L356 230C362 224 372 224 378 230L384 236C390 242 390 252 384 258L252 390C246 396 236 396 230 390L96 260C90 254 90 244 96 238L102 232C108 226 118 226 124 232L220 326V100C220 92 228 84 236 84H244C252 84 260 92 260 100V326Z"/>
      <glyph glyph-name="arrow-left-line" unicode="&#xe0b5;" d="M154 260L250 356C256 362 256 372 250 378L244 384C238 390 228 390 222 384L90 252C84 246 84 236 90 230L222 98C228 92 238 92 244 98L250 104C256 110 256 120 250 126L154 220 380 220C388 220 396 228 396 236V244C396 252 388 260 380 260L154 260Z"/>
      <glyph glyph-name="arrow-right-line" unicode="&#xe0b6;" d="M326 260L230 356C224 362 224 372 230 378L236 384C242 390 252 390 258 384L390 252C396 246 396 236 390 230L260 96C254 90 244 90 238 96L232 102C226 108 226 118 232 124L328 220 100 220C92 220 84 228 84 236V244C84 252 90 260 100 260L326 260Z"/>
      <glyph glyph-name="arrow-down-alt-line" unicode="&#xe0b7;" d="M240 218L328 306C334 312 344 312 350 306L356 300C362 294 362 284 356 278L252 174C246 168 236 168 230 174L126 278C118 284 118 294 124 300L130 306C136 312 146 312 152 306L240 218Z"/>
      <glyph glyph-name="arrow-up-alt-line" unicode="&#xe0b8;" d="M240 262L328 174C334 168 344 168 350 174L356 180C362 186 362 196 356 202L252 306C246 312 236 312 230 306L126 202C120 196 120 186 126 180L132 174C138 168 148 168 154 174L240 262Z"/>
      <glyph glyph-name="arrow-left-alt-line" unicode="&#xe0b9;" d="M218 240L306 328C312 334 312 344 306 350L300 356C294 362 284 362 278 356L174 252C168 246 168 236 174 230L278 126C284 120 294 120 300 126L306 132C312 138 312 148 306 154L218 240Z"/>
      <glyph glyph-name="arrow-right-alt-line" unicode="&#xe0ba;" d="M262 240L174 328C168 334 168 344 174 350L180 356C186 362 196 362 202 356L306 252C312 246 312 236 306 230L202 126C196 120 186 120 180 126L174 132C168 138 168 148 174 154L262 240Z"/>
      <glyph glyph-name="arrow-right-left-line" unicode="&#xe0bb;" d="M332 228L408 152C414 146 414 136 408 130L332 54C326 48 316 48 310 54L304 60C298 66 298 76 304 82L344 122 96 120C88 120 80 128 80 136V144C80 152 88 160 96 160H344L304 200C298 206 298 216 304 222L310 228C316 234 326 234 332 228ZM170 428L176 422C182 416 182 406 176 400L136 360H384C392 360 400 352 400 344V336C400 328 392 320 384 320H136L176 280C182 274 182 264 176 258L170 252C164 246 154 246 148 252L72 328C66 334 66 344 72 350L148 426C154 434 164 434 170 428Z"/>
      <glyph glyph-name="arrow-up-down-line" unicode="&#xe0bc;" d="M228 332L152 408C146 414 136 414 130 408L52 332C46 326 46 316 52 310L58 304C64 298 74 298 80 304L120 344 120 96C120 88 128 80 136 80H144C152 80 160 88 160 96V344L200 304C206 298 216 298 222 304L228 310C234 316 234 326 228 332ZM428 170L422 176C416 182 406 182 400 176L360 136V384C360 392 352 400 344 400H336C328 400 320 392 320 384V136L280 176C274 182 264 182 258 176L252 170C246 164 246 154 252 148L328 72C334 66 344 66 350 72L426 148C434 154 434 164 428 170Z"/>
      <glyph glyph-name="enter-line" unicode="&#xe0bd;" d="M406 334C406 342 398 350 390 350H382C374 350 366 342 366 334L366 242H144L184 282C190 288 190 298 184 304L176 310C170 316 160 316 154 310L78 234C72 228 72 218 78 212L154 136C160 130 170 130 176 136L182 140C188 146 188 156 182 162L142 202 390 202C398 202 406 210 406 218V334Z"/>
      <glyph glyph-name="home-fill" unicode="&#xe0be;" d="M400 64C400 52 392 44 380 44H100C88 44 80 52 80 64V244H62C48 244 40 262 52 272L228 432C236 438 248 438 254 432L430 272C440 262 434 244 420 244H400V64Z"/>
      <glyph glyph-name="bank-fill" unicode="&#xe0bf;" d="M56 80H424C432 80 440 72 440 64V56C440 48 432 40 424 40H56C48 40 40 48 40 56V64C40 74 48 80 56 80ZM96 240H104C112 240 120 234 120 224V116C120 108 112 100 104 100H96C88 100 80 108 80 116V224C80 234 88 240 96 240ZM196 240H204C212 240 220 232 220 224V116C220 108 212 100 204 100H196C188 100 180 108 180 116V224C180 234 188 240 196 240ZM276 240H284C292 240 300 232 300 224V116C300 108 292 100 284 100H276C268 100 260 108 260 116V224C260 234 268 240 276 240ZM376 240H384C392 240 400 232 400 224V116C400 108 392 100 384 100H376C368 100 360 108 360 116V224C360 234 368 240 376 240ZM48 346L232 438C236 440 242 440 246 438L430 346C436 342 440 338 440 332V278C440 270 432 262 424 262H56C48 260 40 268 40 276V332C40 338 44 342 48 346ZM240 320C252 320 260 328 260 340S252 360 240 360 220 352 220 340 228 320 240 320Z"/>
      <glyph glyph-name="building-fill" unicode="&#xe0c0;" d="M404 94H426C434 94 440 88 440 80V58H40V80C40 88 46 94 54 94H76V406C76 414 82 420 90 420H388C396 420 402 414 402 406V94ZM168 244V236C168 228 174 222 182 222H208C216 222 222 228 222 236V244C222 252 216 258 208 258H182C174 258 168 252 168 244ZM168 316V308C168 300 174 294 182 294H208C216 294 222 300 222 308V316C222 324 216 330 208 330H182C174 330 168 324 168 316ZM168 170V162C168 154 174 148 182 148H208C216 148 222 154 222 162V170C222 178 216 184 208 184H182C174 186 168 178 168 170ZM258 170V162C258 154 264 148 272 148H298C306 148 312 154 312 162V170C312 178 306 184 298 184H272C264 186 258 178 258 170ZM258 244V236C258 228 264 222 272 222H298C306 222 312 228 312 236V244C312 252 306 258 298 258H272C264 258 258 252 258 244ZM258 316V308C258 300 264 294 272 294H298C306 294 312 300 312 308V316C312 324 306 330 298 330H272C264 330 258 324 258 316Z"/>
      <glyph glyph-name="store-fill" unicode="&#xe0c1;" d="M422 94V58H58V94H76V216C54 232 40 258 40 286 40 300 44 314 52 328L100 412C104 418 110 422 116 422H362C368 422 374 418 378 412L428 326C450 288 440 240 404 216V94H422ZM128 386L82 308C72 284 84 258 108 248 128 240 152 248 164 266 170 282 192 282 198 266 204 252 214 242 228 238 252 232 274 246 282 266 288 282 310 282 316 266 320 254 328 242 342 240 386 230 414 268 400 300 400 302 398 304 396 306L352 382H128L128 386Z"/>
      <glyph glyph-name="factory-fill" unicode="&#xe0c2;" d="M200 264V418C200 430 212 438 224 432L420 326V46H60V302C60 312 72 320 82 316L200 264Z"/>
      <glyph glyph-name="home-line" unicode="&#xe0c3;" d="M380 44H100C88 44 80 52 80 64V244H62C48 244 40 262 52 272L228 432C236 438 248 438 254 432L430 272C440 262 434 244 420 244H400V64C400 52 392 44 380 44ZM120 84H360V280L240 390 120 280V84Z"/>
      <glyph glyph-name="bank-line" unicode="&#xe0c4;" d="M56 80H424C432 80 440 72 440 64V56C440 48 432 40 424 40H56C48 40 40 48 40 56V64C40 74 48 80 56 80ZM96 240H104C112 240 120 234 120 224V116C120 108 112 100 104 100H96C88 100 80 108 80 116V224C80 234 88 240 96 240ZM196 240H204C212 240 220 232 220 224V116C220 108 212 100 204 100H196C188 100 180 108 180 116V224C180 234 188 240 196 240ZM276 240H284C292 240 300 232 300 224V116C300 108 292 100 284 100H276C268 100 260 108 260 116V224C260 234 268 240 276 240ZM376 240H384C392 240 400 232 400 224V116C400 108 392 100 384 100H376C368 100 360 108 360 116V224C360 234 368 240 376 240ZM48 346L232 438C236 440 242 440 246 438L430 346C436 342 440 338 440 332V278C440 270 432 262 424 262H56C48 260 40 268 40 276V332C40 338 44 342 48 346ZM80 316V300H400V316L248 392C244 394 238 394 234 392L80 316ZM240 320C228 320 220 328 220 340S228 360 240 360 260 352 260 340 252 320 240 320Z"/>
      <glyph glyph-name="building-line" unicode="&#xe0c5;" d="M404 94H426C434 94 440 88 440 80V58H40V80C40 88 46 94 54 94H76V408C76 416 82 422 90 422H388C396 422 402 416 402 408V94ZM368 94V386H112V96H368ZM182 258H208C216 258 222 252 222 244V236C222 228 216 222 208 222H182C174 222 168 228 168 236V244C168 252 174 258 182 258ZM182 330H208C216 330 222 324 222 316V308C222 300 216 294 208 294H182C174 294 168 300 168 308V316C168 324 174 330 182 330ZM182 186H208C216 186 222 180 222 172V164C222 156 216 150 208 150H182C174 150 168 156 168 164V172C168 180 174 186 182 186ZM272 186H298C306 186 312 180 312 172V164C312 156 306 150 298 150H272C264 150 258 156 258 164V172C258 180 264 186 272 186ZM272 258H298C306 258 312 252 312 244V236C312 228 306 222 298 222H272C264 222 258 228 258 236V244C258 252 264 258 272 258ZM272 330H298C306 330 312 324 312 316V308C312 300 306 294 298 294H272C264 294 258 300 258 308V316C258 324 264 330 272 330Z"/>
      <glyph glyph-name="store-line" unicode="&#xe0c6;" d="M58 94H76V216C54 232 40 258 40 286 40 300 44 314 52 328L100 412C104 418 110 422 116 422H362C368 422 374 418 378 412L428 326C450 288 440 240 404 216V94H422V58H58V94M368 204C342 202 318 210 300 228 284 212 264 202 240 202 218 202 196 212 180 228 162 210 138 200 112 204V94H366V204L368 204ZM128 386L82 308C72 284 84 258 108 248 128 240 152 248 164 266 170 282 192 282 198 266 208 242 234 232 258 240 270 244 278 254 284 266 290 282 312 282 318 266 328 242 354 232 378 240 402 250 412 276 404 300 404 302 402 304 400 306L356 382H128L128 386Z"/>
      <glyph glyph-name="factory-line" unicode="&#xe0c7;" d="M200 264V418C200 430 212 438 224 432L420 326V46H60V300C60 312 72 320 82 314L200 264ZM240 378V202L100 264V86H380V302L240 378 240 378Z"/>
      <glyph glyph-name="copyright-fill" unicode="&#xe0c8;" d="M206 438C342 460 460 342 438 206 424 124 358 56 274 42 138 20 20 138 42 274 56 356 124 424 206 438ZM240 340C178 340 128 282 142 218 150 180 180 150 218 142 256 134 292 148 314 174 320 182 318 194 310 198L302 202C296 206 288 204 282 200 260 176 222 174 196 198 182 210 176 230 178 250 184 280 210 300 240 300 258 300 272 292 284 282 290 276 298 274 304 278L310 282C320 288 322 300 314 306 296 328 268 340 240 340Z"/>
      <glyph glyph-name="network-chart-fill" unicode="&#xe0c9;" d="M380 420C352 420 330 398 330 370 330 362 332 356 334 350L294 306C282 314 266 320 250 320 236 320 222 316 210 308L164 354 164 354C168 362 170 370 170 380 170 414 144 440 110 440S50 414 50 380 76 320 110 320C120 320 128 322 136 326L136 326 182 280C174 268 170 254 170 240 170 220 178 202 190 188L138 136C132 138 126 140 120 140 92 140 70 118 70 90S92 40 120 40 170 62 170 90C170 96 168 102 166 108L222 164C230 160 240 160 248 160 292 160 328 196 328 240 328 252 324 264 320 276L362 324C368 322 374 320 380 320 408 320 430 342 430 370S408 420 380 420ZM250 200C228 200 210 218 210 240S228 280 250 280 290 262 290 240 272 200 250 200Z"/>
      <glyph glyph-name="slideshow-fill" unicode="&#xe0ca;" d="M260 130V90H324C332 90 340 82 340 74V66C340 58 332 50 324 50H156C148 50 140 58 140 66V74C140 82 148 90 156 90H220V130H56C48 130 40 138 40 146V414C40 422 48 430 56 430H424C432 430 440 422 440 414V146C440 138 432 130 424 130H260ZM200 312V248C200 236 214 228 224 234L276 266C286 272 286 288 276 294L224 326C214 332 200 324 200 312Z"/>
      <glyph glyph-name="note-fill" unicode="&#xe0cb;" d="M300 200L298 200C288 198 282 192 280 182L280 180V62C280 62 280 60 278 60H80C70 60 60 68 60 80V404C60 412 68 420 76 420H404C412 420 420 412 420 404V202C420 202 420 200 418 200H300ZM418 158L322 64C322 64 320 64 320 66V160C320 160 320 162 322 162H418C418 160 418 158 418 158Z"/>
      <glyph glyph-name="task-fill" unicode="&#xe0cc;" d="M420 404V60C420 50 412 40 400 40H96C76 40 60 56 60 76V420C60 430 68 440 80 440H384C404 440 420 424 420 404ZM226 218L188 256C182 262 172 262 166 256L160 250C154 244 154 234 160 228L226 162 328 264C334 270 334 280 328 286L322 292C316 298 306 298 300 292L226 218 226 218Z"/>
      <glyph glyph-name="stat-fill" unicode="&#xe0cd;" d="M400 250C396 250 390 248 386 248L338 288C340 290 340 296 340 300 340 328 318 350 290 350S240 328 240 300C240 292 242 284 246 278L188 210C186 210 184 210 180 210 176 210 174 210 170 208L118 260C120 264 120 266 120 270 120 292 102 310 80 310S40 292 40 270 58 230 80 230C84 230 86 230 90 232L142 180C140 176 140 174 140 170 140 148 158 130 180 130S220 148 220 170C220 174 220 180 218 184L276 252C280 250 286 250 290 250 298 250 306 252 312 256L360 216C360 214 360 212 360 210 360 188 378 170 400 170S440 188 440 210 422 250 400 250Z"/>
      <glyph glyph-name="analyse-fill" unicode="&#xe0ce;" d="M92 302C100 322 112 338 126 352 142 368 158 380 178 388 216 404 262 404 300 388 300 362 322 340 350 340 378 340 400 362 400 390S378 440 350 440C336 440 324 434 314 426 266 446 210 446 162 424 138 414 116 400 98 382 80 364 66 342 56 318 46 294 40 268 40 240H80C80 262 84 282 92 302ZM388 178C380 158 368 142 354 128S322 102 304 94C266 78 220 78 182 94 182 120 160 142 132 142 102 140 80 118 80 90S102 40 130 40C144 40 156 46 166 54 188 44 214 40 240 40 268 40 294 46 318 56 342 66 364 80 382 98S414 138 424 162C434 186 440 212 440 240H400C400 218 396 198 388 178ZM240 330C190 330 150 290 150 240S190 150 240 150 330 190 330 240 290 330 240 330Z"/>
      <glyph glyph-name="chalkboard-fill" unicode="&#xe0cf;" d="M400 412H80C58 412 40 394 40 372V172C40 150 58 132 80 132H160L134 96C128 88 130 78 138 74L144 70C152 64 162 66 166 74L210 134H270L314 74C320 66 330 66 336 70L342 74C350 80 350 90 346 96L320 132H400C422 132 440 150 440 172V372C440 394 422 412 400 412ZM116 232H164C172 232 180 224 180 216V208C180 200 172 192 164 192H116C108 192 100 200 100 208V216C100 226 108 232 116 232Z"/>
      <glyph glyph-name="server-fill" unicode="&#xe0d0;" d="M400 420H80C58 420 40 402 40 380V300C40 278 58 260 80 260H400C422 260 440 278 440 300V380C440 402 422 420 400 420ZM284 320H276C268 320 260 328 260 336V344C260 352 268 360 276 360H284C292 360 300 352 300 344V336C300 328 292 320 284 320ZM364 320H356C348 320 340 328 340 336V344C340 352 348 360 356 360H364C372 360 380 352 380 344V336C380 328 372 320 364 320ZM400 220H80C58 220 40 202 40 180V100C40 78 58 60 80 60H400C422 60 440 78 440 100V180C440 202 422 220 400 220ZM284 120H276C268 120 260 128 260 136V144C260 152 268 160 276 160H284C292 160 300 152 300 144V136C300 128 292 120 284 120ZM364 120H356C348 120 340 128 340 136V144C340 152 348 160 356 160H364C372 160 380 152 380 144V136C380 128 372 120 364 120Z"/>
      <glyph glyph-name="pin-fill" unicode="&#xe0d1;" d="M300 248V360H340V400C340 422 322 440 300 440H180C158 440 140 422 140 400V360H180V248L126 214C122 210 120 206 120 200V160C120 148 128 140 140 140H180 220V80L240 40 260 80V140H340C352 140 360 148 360 160V200C360 206 358 210 354 214L300 248Z"/>
      <glyph glyph-name="spreadsheet-fill" unicode="&#xe0d2;" d="M60 380V100C60 78 78 60 100 60H380C402 60 420 78 420 100V380C420 402 402 420 380 420H100C78 420 60 402 60 380ZM216 340H344C352 340 360 332 360 324V316C360 308 352 300 344 300H216C208 300 200 308 200 316V324C200 332 208 340 216 340ZM216 260H344C352 260 360 252 360 244V236C360 228 352 220 344 220H216C208 220 200 228 200 236V244C200 252 208 260 216 260ZM216 180H344C352 180 360 172 360 164V156C360 148 352 140 344 140H216C208 140 200 148 200 156V164C200 172 208 180 216 180ZM136 340H144C152 340 160 332 160 324V316C160 308 152 300 144 300H136C128 300 120 308 120 316V324C120 332 128 340 136 340ZM136 260H144C152 260 160 252 160 244V236C160 228 152 220 144 220H136C128 220 120 228 120 236V244C120 252 128 260 136 260ZM136 180H144C152 180 160 172 160 164V156C160 148 152 140 144 140H136C128 140 120 148 120 156V164C120 172 128 180 136 180Z"/>
      <glyph glyph-name="chart-fill" unicode="&#xe0d3;" d="M380 60C402 60 420 78 420 100V380C420 402 402 420 380 420H100C78 420 60 402 60 380V100C60 78 78 60 100 60H380ZM206 280L272 248 296 296C300 304 310 308 318 304L326 300C334 296 338 286 334 278L300 208C296 200 286 196 278 200L212 232 188 184C184 176 174 172 166 176L158 180C150 184 146 194 150 202L184 272C188 280 198 284 206 280Z"/>
      <glyph glyph-name="bar-chart-fill" unicode="&#xe0d4;" d="M76 230H124C132 230 140 222 140 214V66C140 58 132 50 124 50H76C68 50 60 58 60 66V214C60 222 68 230 76 230ZM356 310H404C412 310 420 302 420 294V66C420 58 412 50 404 50H356C348 50 340 58 340 66V294C340 302 348 310 356 310ZM216 430H264C272 430 280 422 280 414V66C280 58 272 50 264 50H216C208 50 200 58 200 66V414C200 422 208 430 216 430Z"/>
      <glyph glyph-name="bar-chart-alt-fill" unicode="&#xe0d5;" d="M420 100V380C420 402 402 420 380 420H100C78 420 60 402 60 380V100C60 78 78 60 100 60H380C402 60 420 78 420 100ZM164 120H156C148 120 140 128 140 136V224C140 232 148 240 156 240H164C172 240 180 232 180 224V136C180 128 172 120 164 120ZM244 120H236C228 120 220 128 220 136V324C220 332 228 340 236 340H244C252 340 260 332 260 324V136C260 128 252 120 244 120ZM324 120H316C308 120 300 128 300 136V264C300 272 308 280 316 280H324C332 280 340 272 340 264V136C340 128 332 120 324 120Z"/>
      <glyph glyph-name="pie-chart-fill" unicode="&#xe0d6;" d="M208 412V208H412C402 114 324 40 226 40 124 40 40 124 40 226 40 322 114 402 208 412ZM246 440C350 432 432 348 440 246H246V440Z"/>
      <glyph glyph-name="pie-chart-alt-fill" unicode="&#xe0d7;" d="M240 440C130 440 40 350 40 240S130 40 240 40 440 130 440 240 350 440 240 440ZM240 240V380C320 380 380 320 380 240H240Z"/>
      <glyph glyph-name="briefcase-fill" unicode="&#xe0d8;" d="M400 350H340V390C340 412 322 430 300 430H180C158 430 140 412 140 390V350H80C58 350 40 332 40 310V250H440V310C440 332 422 350 400 350ZM180 390H300V350H180V390ZM264 190H216C208 190 200 198 200 206V230H40V90C40 68 58 50 80 50H400C422 50 440 68 440 90V230H280V206C280 198 272 190 264 190Z"/>
      <glyph glyph-name="paperclip-fill" unicode="&#xe0d9;" d="M424 440H56C48 440 40 432 40 424V56C40 48 48 40 56 40H424C432 40 440 48 440 56V424C440 432 432 440 424 440ZM386 198L300 114C256 70 186 62 136 100 78 146 74 230 124 282L224 380C258 414 314 412 346 378 378 344 378 292 346 258L250 162C232 144 204 140 182 154 154 174 152 212 174 234L262 322C268 328 276 328 282 322L288 316C294 310 294 302 288 296L200 208C194 202 192 190 200 184 206 178 218 176 224 184 224 184 224 184 224 184L320 280C338 298 342 326 328 348 308 376 270 378 248 356L150 258C112 222 116 160 158 126 180 110 208 104 234 112 248 116 262 124 272 136L360 224C366 230 374 230 380 224L384 220C392 212 392 204 386 198Z"/>
      <glyph glyph-name="target-fill" unicode="&#xe0da;" d="M258 426L258 384C324 376 376 324 384 258H426C434 258 440 252 440 244V236C440 228 434 222 426 222L384 222C376 156 324 104 258 96L258 54C258 46 252 40 244 40H236C228 40 222 46 222 54V96C156 104 104 156 96 222L54 222C46 222 40 228 40 236V244C40 252 46 258 54 258H96C104 324 156 376 222 384V426C222 434 228 440 236 440H244C252 440 258 434 258 426ZM240 276C220 276 204 260 204 240S220 204 240 204 276 220 276 240 260 276 240 276Z"/>
      <glyph glyph-name="mail-fill" unicode="&#xe0db;" d="M60 420H420C432 420 440 412 440 400V80C440 68 432 60 420 60H60C48 60 40 68 40 80V400C40 412 48 420 60 420ZM242 246L112 356 88 324 242 192 394 324 368 354 242 246 242 246Z"/>
      <glyph glyph-name="mail-open-fill" unicode="&#xe0dc;" d="M44 324L228 434C234 438 242 438 248 434L432 324C438 322 440 320 440 316V62C440 50 432 42 420 42H60C48 42 40 50 40 62V316C40 320 42 322 44 324ZM366 296L240 188 112 296 86 266 240 134 392 266 366 296Z"/>
      <glyph glyph-name="inbox-fill" unicode="&#xe0dd;" d="M60 420H420C432 420 440 412 440 400V80C440 68 432 60 420 60H60C48 60 40 68 40 80V400C40 412 48 420 60 420ZM180 240C180 206 206 180 240 180S300 206 300 240H400V380H80V240H180Z"/>
      <glyph glyph-name="at-fill" unicode="&#xe0de;" d="M290 240C290 212 268 190 240 190 212 190 190 212 190 240 190 268 212 290 240 290 268 290 290 268 290 240ZM440 424V56C440 48 432 40 424 40H56C48 40 40 48 40 56V424C40 432 48 440 56 440H424C432 440 440 432 440 424ZM410 240C410 336 332 412 236 410 148 408 74 334 72 246 70 150 146 72 242 72 270 72 298 80 324 92 332 96 334 104 330 112L326 118C322 124 314 126 308 122 288 112 266 106 242 106 158 106 92 182 110 268 118 320 160 362 212 372 298 388 374 322 374 240V214C374 200 362 188 348 188 334 188 322 200 322 214V308H288C252 334 202 330 174 296 144 262 148 210 180 178 214 146 266 148 300 182 314 162 340 152 364 158 390 166 408 190 408 218V240Z"/>
      <glyph glyph-name="copyright-line" unicode="&#xe0df;" d="M206 438C342 460 460 342 438 206 424 124 358 56 274 42 138 20 20 138 42 274 56 356 124 424 206 438ZM272 398C158 418 62 322 82 208 94 146 144 94 208 82 320 60 418 158 396 270 386 334 334 386 272 398ZM220 338C258 346 294 332 316 306 322 298 320 286 312 282L306 278C300 274 292 276 286 280 264 304 226 306 200 282 186 270 180 250 182 230 184 200 210 180 240 180 256 180 272 186 284 198 290 204 298 206 304 202L310 198C318 192 320 182 314 174 282 138 230 130 188 154 146 178 128 230 148 278 160 308 188 332 220 338Z"/>
      <glyph glyph-name="network-chart-line" unicode="&#xe0e0;" d="M370 420C336 420 310 394 310 360 310 350 312 340 318 332L296 306C282 314 266 320 250 320 236 320 222 316 210 308L182 336C188 346 190 358 190 370 190 408 158 440 120 440S50 408 50 370 82 300 120 300C132 300 144 304 154 308L182 280C174 268 170 254 170 240 170 220 178 202 190 188L156 154 156 154C148 158 140 160 130 160 96 160 70 134 70 100S96 40 130 40 190 66 190 100C190 110 188 118 184 126L184 126 224 166C232 162 242 162 250 162 294 162 330 198 330 242 330 254 326 266 322 278L348 308C354 302 362 300 370 300 404 300 430 326 430 360S404 420 370 420ZM130 80C118 80 110 88 110 100S118 120 130 120 150 112 150 100 142 80 130 80ZM90 370C90 386 104 400 120 400S150 386 150 370 136 340 120 340 90 354 90 370ZM250 200C228 200 210 218 210 240S228 280 250 280 290 262 290 240 272 200 250 200ZM370 340C358 340 350 348 350 360S358 380 370 380 390 372 390 360 382 340 370 340Z"/>
      <glyph glyph-name="slideshow-line" unicode="&#xe0e1;" d="M260 130V90H324C332 90 340 82 340 74V66C340 58 332 50 324 50H156C148 50 140 58 140 66V74C140 82 148 90 156 90H220V130H56C48 130 40 138 40 146V414C40 422 48 430 56 430H424C432 430 440 422 440 414V146C440 138 432 130 424 130H260ZM80 390V170H400V390H80ZM224 326L276 294C286 288 286 272 276 266L224 234C214 228 200 236 200 248V312C200 324 214 332 224 326Z"/>
      <glyph glyph-name="note-line" unicode="&#xe0e2;" d="M416 176L306 66C304 64 298 62 294 62L80 60C68 60 60 68 60 80V404C60 412 68 420 76 420H404C412 420 420 412 420 404V186C420 182 418 178 416 176ZM380 380H100V100H260V200C260 210 268 218 278 220L280 220 380 220V380ZM364 180L300 180V116L364 180Z"/>
      <glyph glyph-name="task-line" unicode="&#xe0e3;" d="M420 420V60C420 50 412 40 400 40H80C70 40 60 48 60 60V420C60 430 68 440 80 440H400C412 440 420 432 420 420ZM380 400H100V80H380V400ZM300 292C306 298 316 298 322 292L328 286C334 280 334 270 328 264L226 162 160 228C154 234 154 244 160 250L166 256C172 262 182 262 188 256L226 218 300 292Z"/>
      <glyph glyph-name="stat-line" unicode="&#xe0e4;" d="M400 250C396 250 390 248 386 248L338 288C340 290 340 296 340 300 340 328 318 350 290 350S240 328 240 300C240 292 242 284 246 278L188 210C186 210 184 210 180 210 176 210 174 210 170 208L118 260C120 264 120 266 120 270 120 292 102 310 80 310S40 292 40 270 58 230 80 230C84 230 86 230 90 232L142 180C140 176 140 174 140 170 140 148 158 130 180 130S220 148 220 170C220 174 220 180 218 184L276 252C280 250 286 250 290 250 298 250 306 252 312 256L360 216C360 214 360 212 360 210 360 188 378 170 400 170S440 188 440 210 422 250 400 250ZM78 242C62 242 50 254 50 270S62 298 78 298C94 298 106 286 106 270S94 242 78 242ZM180 142C164 142 152 154 152 170 152 186 164 198 180 198 196 198 208 186 208 170 208 154 196 142 180 142ZM290 272C274 272 262 284 262 300 262 316 274 328 290 328 306 328 318 316 318 300 318 284 304 272 290 272ZM400 182C384 182 372 194 372 210S384 238 400 238 428 226 428 210 414 182 400 182Z"/>
      <glyph glyph-name="analyse-line" unicode="&#xe0e5;" d="M40 240H80C80 262 84 282 92 302 100 322 112 338 126 352 142 368 158 380 178 388 216 404 262 404 300 388 300 362 322 340 350 340 378 340 400 362 400 390S378 440 350 440C336 440 324 434 314 426 266 446 210 446 162 424 138 414 116 400 98 382 80 364 66 342 56 318 46 294 40 268 40 240ZM388 178C380 158 368 142 354 128S322 102 304 94C266 78 220 78 182 94 182 120 160 142 132 142 102 140 80 118 80 90S102 40 130 40C144 40 156 46 166 54 188 44 214 40 240 40 268 40 294 46 318 56 342 66 364 80 382 98S414 138 424 162C434 186 440 212 440 240H400C400 218 396 198 388 178ZM240 330C190 330 150 290 150 240S190 150 240 150 330 190 330 240 290 330 240 330ZM240 190C212 190 190 212 190 240S212 290 240 290 290 268 290 240 268 190 240 190Z"/>
      <glyph glyph-name="chalkboard-line" unicode="&#xe0e6;" d="M400 422H80C58 422 40 404 40 382V162C40 140 58 122 80 122H160L134 86C128 78 130 68 138 64L144 60C152 54 162 56 166 64L210 124H270L314 64C320 56 330 56 336 60L342 64C350 70 350 80 346 86L320 122H400C422 122 440 140 440 162V382C440 404 422 422 400 422ZM80 162V382H400L400 162H80ZM136 242H184C192 242 200 234 200 226V218C200 210 192 202 184 202H136C128 202 120 210 120 218V226C120 236 128 242 136 242Z"/>
      <glyph glyph-name="server-line" unicode="&#xe0e7;" d="M400 420H80C58 420 40 402 40 380V300C40 278 58 260 80 260H400C422 260 440 278 440 300V380C440 402 422 420 400 420ZM80 300V380H400L400 300H80ZM400 220H80C58 220 40 202 40 180V100C40 78 58 60 80 60H400C422 60 440 78 440 100V180C440 202 422 220 400 220ZM80 100V180H400L400 100H80ZM356 360H364C372 360 380 352 380 344V336C380 328 372 320 364 320H356C348 320 340 328 340 336V344C340 352 348 360 356 360ZM296 360H304C312 360 320 352 320 344V336C320 328 312 320 304 320H296C288 320 280 328 280 336V344C280 352 288 360 296 360ZM356 160H364C372 160 380 152 380 144V136C380 128 372 120 364 120H356C348 120 340 128 340 136V144C340 152 348 160 356 160ZM296 160H304C312 160 320 152 320 144V136C320 128 312 120 304 120H296C288 120 280 128 280 136V144C280 152 288 160 296 160Z"/>
      <glyph glyph-name="pin-line" unicode="&#xe0e8;" d="M240 40L260 80V140H360C372 140 380 148 380 160V192C380 202 376 212 368 220L340 248V320C352 320 360 328 360 340V400C360 422 342 440 320 440H160C138 440 120 422 120 400V340C120 328 128 320 140 320V248L112 220C104 212 100 202 100 192V160C100 148 108 140 120 140H220V80L240 40ZM160 400H320V360H160V400ZM140 192L174 226C178 230 180 234 180 240V320H300V240C300 234 302 230 306 226L340 192V180H140V192Z"/>
      <glyph glyph-name="spreadsheet-line" unicode="&#xe0e9;" d="M420 380C420 402 402 420 380 420H100C78 420 60 402 60 380V100C60 78 78 60 100 60H380C402 60 420 78 420 100V380ZM100 100V380H380L380 100H100ZM156 340H164C172 340 180 332 180 324V316C180 308 172 300 164 300H156C148 300 140 308 140 316V324C140 332 148 340 156 340ZM236 340H324C332 340 340 332 340 324V316C340 308 332 300 324 300H236C228 300 220 308 220 316V324C220 332 228 340 236 340ZM156 260H164C172 260 180 252 180 244V236C180 228 172 220 164 220H156C148 220 140 228 140 236V244C140 252 148 260 156 260ZM236 260H324C332 260 340 252 340 244V236C340 228 332 220 324 220H236C228 220 220 228 220 236V244C220 252 228 260 236 260ZM156 180H164C172 180 180 172 180 164V156C180 148 172 140 164 140H156C148 140 140 148 140 156V164C140 172 148 180 156 180ZM236 180H324C332 180 340 172 340 164V156C340 148 332 140 324 140H236C228 140 220 148 220 156V164C220 172 228 180 236 180Z"/>
      <glyph glyph-name="chart-line" unicode="&#xe0ea;" d="M100 60H380C402 60 420 78 420 100V380C420 402 402 420 380 420H100C78 420 60 402 60 380V100C60 78 78 60 100 60ZM100 380H380L380 100H100V380ZM272 246L206 280C198 284 188 280 184 272L150 202C146 194 150 184 158 180L166 176C174 172 184 176 188 184L212 232 278 200C286 196 296 200 300 208L334 278C338 286 334 296 326 300L318 304C310 308 300 304 296 296L272 246Z"/>
      <glyph glyph-name="bar-chart-line" unicode="&#xe0eb;" d="M76 230H84C92 230 100 222 100 214V66C100 58 92 50 84 50H76C68 50 60 58 60 66V214C60 222 68 230 76 230ZM396 310H404C412 310 420 302 420 294V66C420 58 412 50 404 50H396C388 50 380 58 380 66V294C380 302 388 310 396 310ZM236 430H244C252 430 260 422 260 414V66C260 58 252 50 244 50H236C228 50 220 58 220 66V414C220 422 228 430 236 430Z"/>
      <glyph glyph-name="bar-chart-alt-line" unicode="&#xe0ec;" d="M60 380V100C60 78 78 60 100 60H380C402 60 420 78 420 100V380C420 402 402 420 380 420H100C78 420 60 402 60 380ZM380 100H100V380H380L380 100ZM236 340H244C252 340 260 332 260 324V156C260 148 252 140 244 140H236C228 140 220 148 220 156V324C220 332 228 340 236 340ZM316 280H324C332 280 340 272 340 264V156C340 148 332 140 324 140H316C308 140 300 148 300 156V264C300 272 308 280 316 280ZM156 240H164C172 240 180 232 180 224V156C180 148 172 140 164 140H156C148 140 140 148 140 156V224C140 232 148 240 156 240Z"/>
      <glyph glyph-name="pie-chart-line" unicode="&#xe0ed;" d="M208 440C214 440 220 440 226 440 344 440 440 344 440 226 440 220 440 214 440 208H412C402 114 324 40 226 40 124 40 40 124 40 226 40 322 114 402 208 412V440L208 440ZM208 208V374C126 364 68 290 80 208 90 134 152 78 228 78 304 78 366 134 376 208H208ZM402 244C394 326 328 392 244 402V244H402Z"/>
      <glyph glyph-name="pie-chart-alt-line" unicode="&#xe0ee;" d="M240 440C130 440 40 350 40 240S130 40 240 40 440 130 440 240 350 440 240 440ZM240 80C152 80 80 152 80 240S152 400 240 400 400 328 400 240 328 80 240 80ZM240 376V240H376C376 316 316 376 240 376Z"/>
      <glyph glyph-name="briefcase-line" unicode="&#xe0ef;" d="M400 350H340V390C340 412 322 430 300 430H180C158 430 140 412 140 390V350H80C58 350 40 332 40 310V90C40 68 58 50 80 50H400C422 50 440 68 440 90V310C440 332 422 350 400 350ZM300 390V350H180V390H300ZM160 310H320 400V250H80V310H160ZM80 90V210H200V186C200 178 208 170 216 170H264C272 170 280 178 280 186V210H400L400 90H80Z"/>
      <glyph glyph-name="paperclip-line" unicode="&#xe0f0;" d="M296 328C302 322 302 312 296 306L194 204C186 196 186 184 194 176 202 168 214 168 222 176 222 176 222 176 222 176L334 288C354 308 360 342 344 366 320 396 276 400 250 374L250 374 136 260C92 218 96 146 146 108 170 90 204 82 234 92 252 98 266 106 278 118L380 220C386 226 396 226 402 220L408 214C414 208 414 198 408 192L310 94C260 44 178 34 122 78 54 130 50 228 108 288L108 288 222 402C262 440 326 440 364 400 402 362 402 300 364 262L252 150C232 130 198 124 174 140 142 162 140 206 166 232L268 334C274 340 284 340 290 334L296 328Z"/>
      <glyph glyph-name="target-line" unicode="&#xe0f1;" d="M258 424L258 384C324 376 376 324 384 258H424C432 258 440 250 440 242V238C440 230 432 222 424 222L384 222C376 156 324 104 258 96L258 56C258 48 250 40 242 40H238C230 40 222 48 222 56V96C156 104 104 156 96 222L56 222C48 222 40 230 40 238V242C40 250 48 258 56 258H96C104 324 156 376 222 384V424C222 432 230 440 238 440H242C250 440 258 432 258 424ZM240 350C180 350 130 300 130 240S180 130 240 130 350 178 350 240 300 350 240 350ZM240 276C260 276 276 260 276 240S260 204 240 204 204 220 204 240 220 276 240 276Z"/>
      <glyph glyph-name="mail-line" unicode="&#xe0f2;" d="M60 420H420C432 420 440 412 440 400V80C440 68 432 60 420 60H60C48 60 40 68 40 80V400C40 412 48 420 60 420ZM400 336L242 194 80 336V100H400V336ZM90 380L242 246 390 380H90Z"/>
      <glyph glyph-name="mail-open-line" unicode="&#xe0f3;" d="M44 324L228 434C234 438 242 438 248 434L432 324C438 322 440 320 440 316V62C440 50 432 42 420 42H60C48 42 40 50 40 62V316C40 320 42 322 44 324ZM80 300V82H400V300L240 396 80 300 80 300ZM242 188L348 278 374 248 242 138 108 248 134 278 242 188Z"/>
      <glyph glyph-name="inbox-line" unicode="&#xe0f4;" d="M60 420H420C432 420 440 412 440 400V80C440 68 432 60 420 60H60C48 60 40 68 40 80V400C40 412 48 420 60 420ZM400 200H332C310 150 250 126 200 148 176 158 158 176 148 200H80V100H400V200ZM400 240V380H80V240H180C180 206 206 180 240 180S300 206 300 240H400Z"/>
      <glyph glyph-name="at-line" unicode="&#xe0f5;" d="M400 240C400 338 310 416 208 396 146 384 96 334 84 272 64 170 142 80 240 80 266 80 294 86 316 100 324 104 332 102 336 94L340 88C346 80 342 70 334 64 306 48 274 40 240 40 128 40 36 132 40 246 42 350 130 438 234 440 348 444 440 352 440 240L440 214C440 182 420 152 388 144 358 136 328 148 312 172 274 132 212 130 172 168 134 204 130 266 164 306 200 346 258 352 300 320H340V210C340 194 354 180 370 180S400 194 400 210V240ZM240 300C206 300 180 274 180 240S206 180 240 180 300 206 300 240 274 300 240 300Z"/>
      <glyph glyph-name="bug-fill" unicode="&#xe0f6;" d="M122 314C122 316 124 318 126 320H356C358 318 358 316 360 314L400 338 420 304 376 278C380 266 380 254 380 240V220H440V180H380C380 160 376 142 370 126L420 98 400 64 350 94C328 66 296 48 262 44V200H222V40C188 46 156 64 134 90L80 62 60 96 110 124C104 142 100 160 100 180H40V220H100V240C100 252 102 266 104 278L60 302 80 336 122 314ZM160 360C160 404 196 440 240 440S320 404 320 360H160Z"/>
      <glyph glyph-name="data-fill" unicode="&#xe0f7;" d="M420 300V240C420 190 340 150 240 150S60 190 60 240V300C60 250 140 210 240 210S420 250 420 300ZM60 200C60 150 140 110 240 110S420 150 420 200V140C420 90 340 50 240 50S60 90 60 140V200ZM240 250C140 250 60 290 60 340S140 430 240 430 420 390 420 340 340 250 240 250Z"/>
      <glyph glyph-name="terminal-fill" unicode="&#xe0f8;" d="M400 400H80C58 400 40 382 40 360V120C40 98 58 80 80 80H400C422 80 440 98 440 120V360C440 382 422 400 400 400ZM128 166L100 194 146 240 100 286 128 314 202 240 128 166ZM364 160H256C248 160 240 168 240 176V184C240 192 248 200 256 200H364C372 200 380 192 380 184V176C380 168 372 160 364 160Z"/>
      <glyph glyph-name="component-fill" unicode="&#xe0f9;" d="M168 158L222 186V146L170 120 168 120V158ZM292 308L240 282V242L292 268V308ZM240 362L190 336 230 316 280 342 240 362ZM440 424V56C440 48 432 40 424 40H56C48 40 40 48 40 56V424C40 432 48 440 56 440H424C432 440 440 432 440 424ZM398 222C398 228 394 234 388 238L328 268V346C328 352 324 358 318 362L248 398C244 400 238 400 232 398L162 362C156 358 152 352 152 346V268L92 238C86 236 82 228 82 222V134C82 128 86 122 92 118L162 82C164 80 168 80 170 80S176 80 178 82L240 114 302 82C304 80 308 80 310 80S316 80 318 82L388 118C394 120 398 128 398 134V222ZM170 238L118 212 158 192 210 218 170 238ZM310 238L260 212 300 192 350 218 310 238ZM310 118L362 144V184L310 158V118Z"/>
      <glyph glyph-name="package-fill" unicode="&#xe0fa;" d="M440 322C440 324 440 324 440 326 440 326 440 326 440 328 440 330 440 330 438 332 438 332 438 332 436 334 436 334 434 336 434 336 434 336 432 336 432 338 432 338 430 340 430 340 430 340 430 340 430 340 430 340 430 340 430 340L250 440C244 444 236 444 230 440L50 340C50 340 50 340 50 340 50 340 50 340 50 340 50 340 48 340 48 338 48 338 46 336 46 336 46 336 44 334 44 334 44 334 42 332 42 332 42 332 42 330 40 330 40 330 40 328 40 328 40 326 40 326 40 324 40 320 40 320 40 320V320 320 160C40 152 44 146 50 142L230 42 230 42C230 42 230 42 230 42L230 42C230 42 232 42 232 40 232 40 234 40 234 40 236 40 238 40 240 40S244 40 246 40C246 40 248 40 248 40 248 40 250 40 250 42L250 42C250 42 250 42 250 42L250 42 430 142C436 146 440 152 440 160L440 322 440 322 440 322C440 320 440 320 440 322ZM240 242L102 320 158 350 294 272 240 242ZM240 398L378 320 334 296 198 374 240 398ZM260 94L260 208 320 242V180L360 200V264L400 286V172L260 94Z"/>
      <glyph glyph-name="shield-fill" unicode="&#xe0fb;" d="M90 406L240 440 390 406C398 404 404 396 404 388V206C404 170 386 136 356 116L240 40 126 116C96 136 78 170 78 206V388C76 398 82 404 90 406Z"/>
      <glyph glyph-name="shield-check-fill" unicode="&#xe0fc;" d="M390 406L240 440 90 406C82 404 76 398 76 388V206C76 170 94 136 124 116L240 40 354 116C384 136 402 170 402 206V388C404 398 398 404 390 406ZM332 290L228 186 164 250C158 256 158 266 164 272L170 278C176 284 186 284 192 278L228 242 304 318C310 324 320 324 326 318L332 312C336 306 336 296 332 290Z"/>
      <glyph glyph-name="shield-x-fill" unicode="&#xe0fd;" d="M390 406L240 440 90 406C82 404 76 398 76 388V206C76 170 94 136 124 116L240 40 354 116C384 136 402 170 402 206V388C404 398 398 404 390 406ZM302 224C308 218 308 208 302 202L296 196C290 190 280 190 274 196L240 230 206 196C200 190 190 190 184 196L178 202C172 208 172 218 178 224L212 258 178 292C170 300 170 310 178 316L184 322C190 328 200 328 206 322L240 286 274 320C280 326 290 326 296 320L302 314C308 308 308 298 302 292L268 258 302 224Z"/>
      <glyph glyph-name="bracket-fill" unicode="&#xe0fe;" d="M424 440H56C48 440 40 432 40 424V56C40 48 48 40 56 40H424C432 40 440 48 440 56V424C440 432 432 440 424 440ZM190 358H138V122H188V88H106V392H190V358ZM376 88H292V122H342V358H292V392H376V88Z"/>
      <glyph glyph-name="branch-fill" unicode="&#xe0ff;" d="M142 176C172 164 188 128 176 98 164 68 128 52 98 64S52 112 64 142C70 158 84 170 100 176V304C68 314 52 348 64 380S108 428 140 416 188 372 176 340C170 322 158 310 140 304V240C156 252 178 260 200 260H280C308 260 330 278 338 304 308 316 292 352 304 382 316 412 352 428 382 416 412 404 428 368 416 338 410 322 396 308 378 304 370 254 328 220 280 220H200C172 220 150 202 142 176Z"/>
      <glyph glyph-name="code-fill" unicode="&#xe100;" d="M424 440H56C48 440 40 432 40 424V56C40 48 48 40 56 40H424C432 40 440 48 440 56V424C440 432 432 440 424 440ZM190 164C196 158 196 148 190 142 184 136 174 136 168 142L72 240 170 338C176 344 186 344 192 338 198 332 198 322 192 316L114 240 190 164ZM312 142C306 136 296 136 290 142 284 148 284 158 290 164L366 240 290 316C284 322 284 332 290 338 296 344 306 344 312 338L410 240 312 142Z"/>
      <glyph glyph-name="bug-line" unicode="&#xe101;" d="M260 82C306 92 340 132 340 180V240C340 254 338 268 332 280H148C142 268 140 254 140 240V180C140 132 174 92 220 82V200H260V82ZM110 126C104 144 100 162 100 180H40V220H100V240C100 252 102 266 104 278L60 302 80 336 120 312C122 316 124 318 126 320H356C358 318 358 316 360 314L400 338 420 304 376 278C380 266 380 254 380 240V220H440V180H380C380 160 376 142 370 126L420 98 400 64 350 94C322 60 282 40 240 40 198 40 158 60 132 92L80 62 60 96 110 126 110 126ZM160 360C160 404 196 440 240 440S320 404 320 360H160Z"/>
      <glyph glyph-name="data-line" unicode="&#xe102;" d="M100 240C100 234 110 222 130 212 158 198 196 190 240 190S322 198 350 212C372 222 380 234 380 240V284C348 264 296 250 240 250S134 264 100 284V240ZM380 184C348 164 296 150 240 150S134 164 100 184V140C100 134 110 122 130 112 158 98 196 90 240 90S322 98 350 112C372 122 380 134 380 140V184ZM60 140V340C60 390 140 430 240 430S420 390 420 340V140C420 90 340 50 240 50S60 90 60 140ZM240 290C282 290 322 298 350 312 370 322 380 334 380 340S370 358 350 368C322 382 284 390 240 390S158 382 130 368C110 358 100 346 100 340S110 322 130 312C158 298 198 290 240 290Z"/>
      <glyph glyph-name="terminal-line" unicode="&#xe103;" d="M256 200H344C352 200 360 194 360 184V176C360 168 354 160 344 160H256C248 160 240 166 240 176V184C240 194 246 200 256 200ZM126 286L172 240 126 194 154 166 228 240 154 314 126 286ZM400 400H80C58 400 40 382 40 360V120C40 98 58 80 80 80H400C422 80 440 98 440 120V360C440 382 422 400 400 400ZM80 120V360H400L400 120H80Z"/>
      <glyph glyph-name="component-line" unicode="&#xe104;" d="M72 102L152 62C154 60 156 60 160 60S166 60 168 62L240 98 312 62C314 60 316 60 320 60S326 60 328 62L408 102C414 106 420 112 420 120V220C420 228 416 234 408 238L340 272V360C340 368 336 374 328 378L248 418C242 420 236 420 230 418L150 378C144 374 140 368 140 360V272L72 238C64 234 60 228 60 220V120C60 112 64 106 72 102ZM160 238L206 216 148 186 102 208 160 238ZM240 288L300 318V272L240 242V288ZM366 214L308 186 262 208 320 236 366 214ZM160 102L160 102 158 146 220 176V130L160 102ZM320 102V148L380 178V132L320 102ZM240 378L286 356 228 328 182 348 240 378Z"/>
      <glyph glyph-name="package-line" unicode="&#xe105;" d="M440 322C440 324 440 324 440 326 440 326 440 326 440 328 440 330 440 330 438 332 438 332 438 332 436 334 436 334 434 336 434 336 434 336 432 336 432 338 432 338 430 340 430 340 430 340 430 340 430 340 430 340 430 340 430 340L250 440C244 444 236 444 230 440L50 340C50 340 50 340 50 340 50 340 50 340 50 340 50 340 48 340 48 338 48 338 46 336 46 336 46 336 44 334 44 334 44 334 42 332 42 332 42 332 42 330 40 330 40 330 40 328 40 328 40 326 40 326 40 324 40 320 40 320 40 320V320 320 160C40 152 44 146 50 142L230 42 230 42C230 42 230 42 230 42L230 42C230 42 232 42 232 40 232 40 234 40 234 40 236 40 238 40 240 40S244 40 246 40C246 40 248 40 248 40 248 40 250 40 250 42L250 42C250 42 250 42 250 42L250 42 430 142C436 146 440 152 440 160L440 322 440 322 440 322C440 320 440 320 440 322ZM240 242L102 320 158 350 294 272 240 242ZM240 398L378 320 334 296 198 374 240 398ZM80 286L220 208V94L80 172V286ZM260 94L260 208 320 242V180L360 200V264L400 286V172L260 94Z"/>
      <glyph glyph-name="shield-line" unicode="&#xe106;" d="M90 406L240 440 390 406C398 404 404 396 404 388V206C404 170 386 136 356 116L240 40 126 116C96 136 78 170 78 206V388C76 398 82 404 90 406ZM112 374V208C112 184 124 162 144 148L238 84 332 148C352 162 364 184 364 208V374L240 402 112 374Z"/>
      <glyph glyph-name="shield-check-line" unicode="&#xe107;" d="M90 406L240 440 390 406C398 404 404 396 404 388V206C404 170 386 136 356 116L240 40 126 116C96 136 78 170 78 206V388C76 398 82 404 90 406ZM112 374V208C112 184 124 162 144 148L238 84 332 148C352 162 364 184 364 208V374L240 402 112 374ZM228 244L192 280C186 286 176 286 170 280L164 274C158 268 158 258 164 252L228 188 332 292C338 298 338 308 332 314L326 320C320 326 310 326 304 320L228 244Z"/>
      <glyph glyph-name="shield-x-line" unicode="&#xe108;" d="M90 406L240 440 390 406C398 404 404 396 404 388V206C404 170 386 136 356 116L240 40 126 116C96 136 78 170 78 206V388C76 398 82 404 90 406ZM112 374V208C112 184 124 162 144 148L238 84 332 148C352 162 364 184 364 208V374L240 402 112 374ZM274 322L240 286 206 320C200 326 190 326 184 320L178 316C170 310 170 300 178 292L212 258 178 224C172 218 172 208 178 202L184 196C190 190 200 190 206 196L240 230 274 196C280 190 290 190 296 196L302 202C308 208 308 218 302 224L268 258 302 292C308 298 308 308 302 314L296 320C290 328 280 328 274 322Z"/>
      <glyph glyph-name="bracket-line" unicode="&#xe109;" d="M180 420V380H120V100H180V60H80V420H180ZM300 420H400V60H300V100H360V380H300V420Z"/>
      <glyph glyph-name="branch-line" unicode="&#xe10a;" d="M142 176C172 164 188 128 176 98 164 68 128 52 98 64S52 112 64 142C70 158 84 170 100 176V304C68 314 52 348 64 380S108 428 140 416 188 372 176 340C170 322 158 310 140 304V240C156 252 178 260 200 260H280C308 260 330 278 338 304 308 316 292 352 304 382 316 412 352 428 382 416 412 404 428 368 416 338 410 322 396 308 378 304 370 254 328 220 280 220H200C172 220 150 202 142 176ZM120 140C108 140 100 132 100 120S108 100 120 100 140 108 140 120 132 140 120 140ZM120 380C108 380 100 372 100 360S108 340 120 340 140 348 140 360 132 380 120 380ZM360 380C348 380 340 372 340 360S348 340 360 340 380 348 380 360 372 380 360 380Z"/>
      <glyph glyph-name="code-line" unicode="&#xe10b;" d="M438 240L322 124C316 118 306 118 300 124L298 126C292 132 292 142 298 148L388 238 298 328C292 334 292 344 298 350L300 356C306 362 316 362 322 356L438 240ZM92 240L182 150C188 144 188 134 182 128L180 124C174 118 164 118 158 124L42 240 158 356C164 362 174 362 180 356L182 354C188 348 188 338 182 332L92 240Z"/>
    </font>
</defs>
</svg>
