<svg xmlns="http://www.w3.org/2000/svg" viewBox="0 0 24 24" width="24" height="24">
    <path d="M11.4,7.4L7.6,3.6c-0.3-0.3-0.8-0.3-1.1,0L2.6,7.4c-0.3,0.3-0.3,0.8,0,1.1l0.3,0.3
	c0.3,0.3,0.8,0.3,1.1,0l2-2l0,12.4C6,19.6,6.4,20,6.8,20h0.4C7.6,20,8,19.6,8,19.2V6.8l2,2c0.3,0.3,0.8,0.3,1.1,0l0.3-0.3
	C11.7,8.2,11.7,7.7,11.4,7.4z M21.4,15.5l-0.3-0.3c-0.3-0.3-0.8-0.3-1.1,0l-2,2V4.8C18,4.4,17.6,4,17.2,4h-0.4C16.4,4,16,4.4,16,4.8
	v12.4l-2-2c-0.3-0.3-0.8-0.3-1.1,0l-0.3,0.3c-0.3,0.3-0.3,0.8,0,1.1l3.8,3.8c0.3,0.3,0.8,0.3,1.1,0l3.8-3.8
	C21.7,16.3,21.7,15.8,21.4,15.5z"/>
</svg>
