<svg xmlns="http://www.w3.org/2000/svg" viewBox="0 0 24 24" width="24" height="24">
    <path d="M16.6,12.6l3.8,3.8c0.3,0.3,0.3,0.8,0,1.1l-3.8,3.8c-0.3,0.3-0.8,0.3-1.1,0l-0.3-0.3
	c-0.3-0.3-0.3-0.8,0-1.1l2-2L4.8,18C4.4,18,4,17.6,4,17.2v-0.4C4,16.4,4.4,16,4.8,16h12.4l-2-2c-0.3-0.3-0.3-0.8,0-1.1l0.3-0.3
	C15.8,12.3,16.3,12.3,16.6,12.6z M8.5,2.6l0.3,0.3c0.3,0.3,0.3,0.8,0,1.1l-2,2h12.4C19.6,6,20,6.4,20,6.8v0.4C20,7.6,19.6,8,19.2,8
	H6.8l2,2c0.3,0.3,0.3,0.8,0,1.1l-0.3,0.3c-0.3,0.3-0.8,0.3-1.1,0L3.6,7.6c-0.3-0.3-0.3-0.8,0-1.1l3.8-3.8C7.7,2.3,8.2,2.3,8.5,2.6z"/>
</svg>
