<svg xmlns="http://www.w3.org/2000/svg" viewBox="0 0 480 480" height="480" width="480">
  <path d="M332 252L408 328C414 334 414 344 408 350L332 426C326 432 316 432 310 426L304 420C298 414 298 404 304 398L344 358 96 360C88 360 80 352 80 344V336C80 328 88 320 96 320H344L304 280C298 274 298 264 304 258L310 252C316 246 326 246 332 252ZM170 52L176 58C182 64 182 74 176 80L136 120H384C392 120 400 128 400 136V144C400 152 392 160 384 160H136L176 200C182 206 182 216 176 222L170 228C164 234 154 234 148 228L72 152C66 146 66 136 72 130L148 54C154 46 164 46 170 52Z"/>
</svg>