<svg xmlns="http://www.w3.org/2000/svg" viewBox="0 0 480 480" height="480" width="480">
  <path d="M228 148L152 72C146 66 136 66 130 72L52 148C46 154 46 164 52 170L58 176C64 182 74 182 80 176L120 136 120 384C120 392 128 400 136 400H144C152 400 160 392 160 384V136L200 176C206 182 216 182 222 176L228 170C234 164 234 154 228 148ZM428 310L422 304C416 298 406 298 400 304L360 344V96C360 88 352 80 344 80H336C328 80 320 88 320 96V344L280 304C274 298 264 298 258 304L252 310C246 316 246 326 252 332L328 408C334 414 344 414 350 408L426 332C434 326 434 316 428 310Z"/>
</svg>