<svg xmlns="http://www.w3.org/2000/svg" viewBox="0 0 480 480" height="480" width="480">
  <path d="M400 240C400 142 310 64 208 84 146 96 96 146 84 208 64 310 142 400 240 400 266 400 294 394 316 380 324 376 332 378 336 386L340 392C346 400 342 410 334 416 306 432 274 440 240 440 128 440 36 348 40 234 42 130 130 42 234 40 348 36 440 128 440 240L440 266C440 298 420 328 388 336 358 344 328 332 312 308 274 348 212 350 172 312 134 276 130 214 164 174 200 134 258 128 300 160H340V270C340 286 354 300 370 300S400 286 400 270V240ZM240 180C206 180 180 206 180 240S206 300 240 300 300 274 300 240 274 180 240 180Z"/>
</svg>