<svg xmlns="http://www.w3.org/2000/svg" viewBox="0 0 480 480" height="480" width="480">
  <path d="M56 400H424C432 400 440 408 440 416V424C440 432 432 440 424 440H56C48 440 40 432 40 424V416C40 406 48 400 56 400ZM96 240H104C112 240 120 246 120 256V364C120 372 112 380 104 380H96C88 380 80 372 80 364V256C80 246 88 240 96 240ZM196 240H204C212 240 220 248 220 256V364C220 372 212 380 204 380H196C188 380 180 372 180 364V256C180 246 188 240 196 240ZM276 240H284C292 240 300 248 300 256V364C300 372 292 380 284 380H276C268 380 260 372 260 364V256C260 246 268 240 276 240ZM376 240H384C392 240 400 248 400 256V364C400 372 392 380 384 380H376C368 380 360 372 360 364V256C360 246 368 240 376 240ZM48 134L232 42C236 40 242 40 246 42L430 134C436 138 440 142 440 148V202C440 210 432 218 424 218H56C48 220 40 212 40 204V148C40 142 44 138 48 134ZM80 164V180H400V164L248 88C244 86 238 86 234 88L80 164ZM240 160C228 160 220 152 220 140S228 120 240 120 260 128 260 140 252 160 240 160Z"/>
</svg>