<svg xmlns="http://www.w3.org/2000/svg" viewBox="0 0 480 480" height="480" width="480">
  <path d="M60 100V380C60 402 78 420 100 420H380C402 420 420 402 420 380V100C420 78 402 60 380 60H100C78 60 60 78 60 100ZM380 380H100V100H380L380 380ZM236 140H244C252 140 260 148 260 156V324C260 332 252 340 244 340H236C228 340 220 332 220 324V156C220 148 228 140 236 140ZM316 200H324C332 200 340 208 340 216V324C340 332 332 340 324 340H316C308 340 300 332 300 324V216C300 208 308 200 316 200ZM156 240H164C172 240 180 248 180 256V324C180 332 172 340 164 340H156C148 340 140 332 140 324V256C140 248 148 240 156 240Z"/>
</svg>