<svg xmlns="http://www.w3.org/2000/svg" viewBox="0 0 480 480" height="480" width="480">
  <path d="M142 304C172 316 188 352 176 382 164 412 128 428 98 416S52 368 64 338C70 322 84 310 100 304V176C68 166 52 132 64 100S108 52 140 64 188 108 176 140C170 158 158 170 140 176V240C156 228 178 220 200 220H280C308 220 330 202 338 176 308 164 292 128 304 98 316 68 352 52 382 64 412 76 428 112 416 142 410 158 396 172 378 176 370 226 328 260 280 260H200C172 260 150 278 142 304ZM120 340C108 340 100 348 100 360S108 380 120 380 140 372 140 360 132 340 120 340ZM120 100C108 100 100 108 100 120S108 140 120 140 140 132 140 120 132 100 120 100ZM360 100C348 100 340 108 340 120S348 140 360 140 380 132 380 120 372 100 360 100Z"/>
</svg>