<svg xmlns="http://www.w3.org/2000/svg" viewBox="0 0 480 480" height="480" width="480">
  <path d="M260 398C306 388 340 348 340 300V240C340 226 338 212 332 200H148C142 212 140 226 140 240V300C140 348 174 388 220 398V280H260V398ZM110 354C104 336 100 318 100 300H40V260H100V240C100 228 102 214 104 202L60 178 80 144 120 168C122 164 124 162 126 160H356C358 162 358 164 360 166L400 142 420 176 376 202C380 214 380 226 380 240V260H440V300H380C380 320 376 338 370 354L420 382 400 416 350 386C322 420 282 440 240 440 198 440 158 420 132 388L80 418 60 384 110 354 110 354ZM160 120C160 76 196 40 240 40S320 76 320 120H160Z"/>
</svg>