<svg xmlns="http://www.w3.org/2000/svg" viewBox="0 0 480 480" height="480" width="480">
  <path d="M404 386H426C434 386 440 392 440 400V422H40V400C40 392 46 386 54 386H76V72C76 64 82 58 90 58H388C396 58 402 64 402 72V386ZM368 386V94H112V384H368ZM182 222H208C216 222 222 228 222 236V244C222 252 216 258 208 258H182C174 258 168 252 168 244V236C168 228 174 222 182 222ZM182 150H208C216 150 222 156 222 164V172C222 180 216 186 208 186H182C174 186 168 180 168 172V164C168 156 174 150 182 150ZM182 294H208C216 294 222 300 222 308V316C222 324 216 330 208 330H182C174 330 168 324 168 316V308C168 300 174 294 182 294ZM272 294H298C306 294 312 300 312 308V316C312 324 306 330 298 330H272C264 330 258 324 258 316V308C258 300 264 294 272 294ZM272 222H298C306 222 312 228 312 236V244C312 252 306 258 298 258H272C264 258 258 252 258 244V236C258 228 264 222 272 222ZM272 150H298C306 150 312 156 312 164V172C312 180 306 186 298 186H272C264 186 258 180 258 172V164C258 156 264 150 272 150Z"/>
</svg>