<svg xmlns="http://www.w3.org/2000/svg" viewBox="0 0 480 480" height="480" width="480">
  <path d="M400 58H80C58 58 40 76 40 98V318C40 340 58 358 80 358H160L134 394C128 402 130 412 138 416L144 420C152 426 162 424 166 416L210 356H270L314 416C320 424 330 424 336 420L342 416C350 410 350 400 346 394L320 358H400C422 358 440 340 440 318V98C440 76 422 58 400 58ZM80 318V98H400L400 318H80ZM136 238H184C192 238 200 246 200 254V262C200 270 192 278 184 278H136C128 278 120 270 120 262V254C120 244 128 238 136 238Z"/>
</svg>