<svg xmlns="http://www.w3.org/2000/svg" viewBox="0 0 480 480" height="480" width="480">
  <path d="M72 378L152 418C154 420 156 420 160 420S166 420 168 418L240 382 312 418C314 420 316 420 320 420S326 420 328 418L408 378C414 374 420 368 420 360V260C420 252 416 246 408 242L340 208V120C340 112 336 106 328 102L248 62C242 60 236 60 230 62L150 102C144 106 140 112 140 120V208L72 242C64 246 60 252 60 260V360C60 368 64 374 72 378ZM160 242L206 264 148 294 102 272 160 242ZM240 192L300 162V208L240 238V192ZM366 266L308 294 262 272 320 244 366 266ZM160 378L160 378 158 334 220 304V350L160 378ZM320 378V332L380 302V348L320 378ZM240 102L286 124 228 152 182 132 240 102Z"/>
</svg>