<svg xmlns="http://www.w3.org/2000/svg" viewBox="0 0 480 480" height="480" width="480">
  <path d="M206 42C342 20 460 138 438 274 424 356 358 424 274 438 138 460 20 342 42 206 56 124 124 56 206 42ZM272 82C158 62 62 158 82 272 94 334 144 386 208 398 320 420 418 322 396 210 386 146 334 94 272 82ZM220 142C258 134 294 148 316 174 322 182 320 194 312 198L306 202C300 206 292 204 286 200 264 176 226 174 200 198 186 210 180 230 182 250 184 280 210 300 240 300 256 300 272 294 284 282 290 276 298 274 304 278L310 282C318 288 320 298 314 306 282 342 230 350 188 326 146 302 128 250 148 202 160 172 188 148 220 142Z"/>
</svg>