<svg xmlns="http://www.w3.org/2000/svg" viewBox="0 0 480 480" height="480" width="480">
  <path d="M100 240C100 246 110 258 130 268 158 282 196 290 240 290S322 282 350 268C372 258 380 246 380 240V196C348 216 296 230 240 230S134 216 100 196V240ZM380 296C348 316 296 330 240 330S134 316 100 296V340C100 346 110 358 130 368 158 382 196 390 240 390S322 382 350 368C372 358 380 346 380 340V296ZM60 340V140C60 90 140 50 240 50S420 90 420 140V340C420 390 340 430 240 430S60 390 60 340ZM240 190C282 190 322 182 350 168 370 158 380 146 380 140S370 122 350 112C322 98 284 90 240 90S158 98 130 112C110 122 100 134 100 140S110 158 130 168C158 182 198 190 240 190Z"/>
</svg>