<svg xmlns="http://www.w3.org/2000/svg" viewBox="0 0 480 480" height="480" width="480">
  <path d="M370 60C336 60 310 86 310 120 310 130 312 140 318 148L296 174C282 166 266 160 250 160 236 160 222 164 210 172L182 144C188 134 190 122 190 110 190 72 158 40 120 40S50 72 50 110 82 180 120 180C132 180 144 176 154 172L182 200C174 212 170 226 170 240 170 260 178 278 190 292L156 326 156 326C148 322 140 320 130 320 96 320 70 346 70 380S96 440 130 440 190 414 190 380C190 370 188 362 184 354L184 354 224 314C232 318 242 318 250 318 294 318 330 282 330 238 330 226 326 214 322 202L348 172C354 178 362 180 370 180 404 180 430 154 430 120S404 60 370 60ZM130 400C118 400 110 392 110 380S118 360 130 360 150 368 150 380 142 400 130 400ZM90 110C90 94 104 80 120 80S150 94 150 110 136 140 120 140 90 126 90 110ZM250 280C228 280 210 262 210 240S228 200 250 200 290 218 290 240 272 280 250 280ZM370 140C358 140 350 132 350 120S358 100 370 100 390 108 390 120 382 140 370 140Z"/>
</svg>