<svg xmlns="http://www.w3.org/2000/svg" viewBox="0 0 480 480" height="480" width="480">
  <path d="M296 152C302 158 302 168 296 174L194 276C186 284 186 296 194 304 202 312 214 312 222 304 222 304 222 304 222 304L334 192C354 172 360 138 344 114 320 84 276 80 250 106L250 106 136 220C92 262 96 334 146 372 170 390 204 398 234 388 252 382 266 374 278 362L380 260C386 254 396 254 402 260L408 266C414 272 414 282 408 288L310 386C260 436 178 446 122 402 54 350 50 252 108 192L108 192 222 78C262 40 326 40 364 80 402 118 402 180 364 218L252 330C232 350 198 356 174 340 142 318 140 274 166 248L268 146C274 140 284 140 290 146L296 152Z"/>
</svg>