<svg xmlns="http://www.w3.org/2000/svg" viewBox="0 0 480 480" height="480" width="480">
  <path d="M400 60H80C58 60 40 78 40 100V180C40 202 58 220 80 220H400C422 220 440 202 440 180V100C440 78 422 60 400 60ZM80 180V100H400L400 180H80ZM400 260H80C58 260 40 278 40 300V380C40 402 58 420 80 420H400C422 420 440 402 440 380V300C440 278 422 260 400 260ZM80 380V300H400L400 380H80ZM356 120H364C372 120 380 128 380 136V144C380 152 372 160 364 160H356C348 160 340 152 340 144V136C340 128 348 120 356 120ZM296 120H304C312 120 320 128 320 136V144C320 152 312 160 304 160H296C288 160 280 152 280 144V136C280 128 288 120 296 120ZM356 320H364C372 320 380 328 380 336V344C380 352 372 360 364 360H356C348 360 340 352 340 344V336C340 328 348 320 356 320ZM296 320H304C312 320 320 328 320 336V344C320 352 312 360 304 360H296C288 360 280 352 280 344V336C280 328 288 320 296 320Z"/>
</svg>