<svg xmlns="http://www.w3.org/2000/svg" viewBox="0 0 480 480" height="480" width="480">
  <path d="M90 74L240 40 390 74C398 76 404 84 404 92V274C404 310 386 344 356 364L240 440 126 364C96 344 78 310 78 274V92C76 82 82 76 90 74ZM112 106V272C112 296 124 318 144 332L238 396 332 332C352 318 364 296 364 272V106L240 78 112 106ZM274 158L240 194 206 160C200 154 190 154 184 160L178 164C170 170 170 180 178 188L212 222 178 256C172 262 172 272 178 278L184 284C190 290 200 290 206 284L240 250 274 284C280 290 290 290 296 284L302 278C308 272 308 262 302 256L268 222 302 188C308 182 308 172 302 166L296 160C290 152 280 152 274 158Z"/>
</svg>