<svg xmlns="http://www.w3.org/2000/svg" viewBox="0 0 480 480" height="480" width="480">
  <path d="M420 100C420 78 402 60 380 60H100C78 60 60 78 60 100V380C60 402 78 420 100 420H380C402 420 420 402 420 380V100ZM100 380V100H380L380 380H100ZM156 140H164C172 140 180 148 180 156V164C180 172 172 180 164 180H156C148 180 140 172 140 164V156C140 148 148 140 156 140ZM236 140H324C332 140 340 148 340 156V164C340 172 332 180 324 180H236C228 180 220 172 220 164V156C220 148 228 140 236 140ZM156 220H164C172 220 180 228 180 236V244C180 252 172 260 164 260H156C148 260 140 252 140 244V236C140 228 148 220 156 220ZM236 220H324C332 220 340 228 340 236V244C340 252 332 260 324 260H236C228 260 220 252 220 244V236C220 228 228 220 236 220ZM156 300H164C172 300 180 308 180 316V324C180 332 172 340 164 340H156C148 340 140 332 140 324V316C140 308 148 300 156 300ZM236 300H324C332 300 340 308 340 316V324C340 332 332 340 324 340H236C228 340 220 332 220 324V316C220 308 228 300 236 300Z"/>
</svg>