<svg xmlns="http://www.w3.org/2000/svg" viewBox="0 0 480 480" height="480" width="480">
  <path d="M58 386H76V264C54 248 40 222 40 194 40 180 44 166 52 152L100 68C104 62 110 58 116 58H362C368 58 374 62 378 68L428 154C450 192 440 240 404 264V386H422V422H58V386M368 276C342 278 318 270 300 252 284 268 264 278 240 278 218 278 196 268 180 252 162 270 138 280 112 276V386H366V276L368 276ZM128 94L82 172C72 196 84 222 108 232 128 240 152 232 164 214 170 198 192 198 198 214 208 238 234 248 258 240 270 236 278 226 284 214 290 198 312 198 318 214 328 238 354 248 378 240 402 230 412 204 404 180 404 178 402 176 400 174L356 98H128L128 94Z"/>
</svg>