<svg xmlns="http://www.w3.org/2000/svg" viewBox="0 0 480 480" height="480" width="480">
  <path d="M258 56L258 96C324 104 376 156 384 222H424C432 222 440 230 440 238V242C440 250 432 258 424 258L384 258C376 324 324 376 258 384L258 424C258 432 250 440 242 440H238C230 440 222 432 222 424V384C156 376 104 324 96 258L56 258C48 258 40 250 40 242V238C40 230 48 222 56 222H96C104 156 156 104 222 96V56C222 48 230 40 238 40H242C250 40 258 48 258 56ZM240 130C180 130 130 180 130 240S180 350 240 350 350 302 350 240 300 130 240 130ZM240 204C260 204 276 220 276 240S260 276 240 276 204 260 204 240 220 204 240 204Z"/>
</svg>