<svg xmlns="http://www.w3.org/2000/svg" viewBox="0 0 480 480" height="480" width="480">
  <path d="M92 178C100 158 112 142 126 128 142 112 158 100 178 92 216 76 262 76 300 92 300 118 322 140 350 140 378 140 400 118 400 90S378 40 350 40C336 40 324 46 314 54 266 34 210 34 162 56 138 66 116 80 98 98 80 116 66 138 56 162 46 186 40 212 40 240H80C80 218 84 198 92 178ZM388 302C380 322 368 338 354 352S322 378 304 386C266 402 220 402 182 386 182 360 160 338 132 338 102 340 80 362 80 390S102 440 130 440C144 440 156 434 166 426 188 436 214 440 240 440 268 440 294 434 318 424 342 414 364 400 382 382S414 342 424 318C434 294 440 268 440 240H400C400 262 396 282 388 302ZM240 150C190 150 150 190 150 240S190 330 240 330 330 290 330 240 290 150 240 150Z"/>
</svg>