<svg xmlns="http://www.w3.org/2000/svg" viewBox="0 0 480 480" height="480" width="480">
  <path d="M290 240C290 268 268 290 240 290 212 290 190 268 190 240 190 212 212 190 240 190 268 190 290 212 290 240ZM440 56V424C440 432 432 440 424 440H56C48 440 40 432 40 424V56C40 48 48 40 56 40H424C432 40 440 48 440 56ZM410 240C410 144 332 68 236 70 148 72 74 146 72 234 70 330 146 408 242 408 270 408 298 400 324 388 332 384 334 376 330 368L326 362C322 356 314 354 308 358 288 368 266 374 242 374 158 374 92 298 110 212 118 160 160 118 212 108 298 92 374 158 374 240V266C374 280 362 292 348 292 334 292 322 280 322 266V172H288C252 146 202 150 174 184 144 218 148 270 180 302 214 334 266 332 300 298 314 318 340 328 364 322 390 314 408 290 408 262V240Z"/>
</svg>