<svg xmlns="http://www.w3.org/2000/svg" viewBox="0 0 480 480" height="480" width="480">
  <path d="M420 380V100C420 78 402 60 380 60H100C78 60 60 78 60 100V380C60 402 78 420 100 420H380C402 420 420 402 420 380ZM164 360H156C148 360 140 352 140 344V256C140 248 148 240 156 240H164C172 240 180 248 180 256V344C180 352 172 360 164 360ZM244 360H236C228 360 220 352 220 344V156C220 148 228 140 236 140H244C252 140 260 148 260 156V344C260 352 252 360 244 360ZM324 360H316C308 360 300 352 300 344V216C300 208 308 200 316 200H324C332 200 340 208 340 216V344C340 352 332 360 324 360Z"/>
</svg>