<svg xmlns="http://www.w3.org/2000/svg" viewBox="0 0 480 480" height="480" width="480">
  <path d="M404 386H426C434 386 440 392 440 400V422H40V400C40 392 46 386 54 386H76V74C76 66 82 60 90 60H388C396 60 402 66 402 74V386ZM168 236V244C168 252 174 258 182 258H208C216 258 222 252 222 244V236C222 228 216 222 208 222H182C174 222 168 228 168 236ZM168 164V172C168 180 174 186 182 186H208C216 186 222 180 222 172V164C222 156 216 150 208 150H182C174 150 168 156 168 164ZM168 310V318C168 326 174 332 182 332H208C216 332 222 326 222 318V310C222 302 216 296 208 296H182C174 294 168 302 168 310ZM258 310V318C258 326 264 332 272 332H298C306 332 312 326 312 318V310C312 302 306 296 298 296H272C264 294 258 302 258 310ZM258 236V244C258 252 264 258 272 258H298C306 258 312 252 312 244V236C312 228 306 222 298 222H272C264 222 258 228 258 236ZM258 164V172C258 180 264 186 272 186H298C306 186 312 180 312 172V164C312 156 306 150 298 150H272C264 150 258 156 258 164Z"/>
</svg>