<svg xmlns="http://www.w3.org/2000/svg" viewBox="0 0 480 480" height="480" width="480">
  <path d="M168 322L222 294V334L170 360 168 360V322ZM292 172L240 198V238L292 212V172ZM240 118L190 144 230 164 280 138 240 118ZM440 56V424C440 432 432 440 424 440H56C48 440 40 432 40 424V56C40 48 48 40 56 40H424C432 40 440 48 440 56ZM398 258C398 252 394 246 388 242L328 212V134C328 128 324 122 318 118L248 82C244 80 238 80 232 82L162 118C156 122 152 128 152 134V212L92 242C86 244 82 252 82 258V346C82 352 86 358 92 362L162 398C164 400 168 400 170 400S176 400 178 398L240 366 302 398C304 400 308 400 310 400S316 400 318 398L388 362C394 360 398 352 398 346V258ZM170 242L118 268 158 288 210 262 170 242ZM310 242L260 268 300 288 350 262 310 242ZM310 362L362 336V296L310 322V362Z"/>
</svg>