<svg xmlns="http://www.w3.org/2000/svg" viewBox="0 0 480 480" height="480" width="480">
  <path d="M206 42C342 20 460 138 438 274 424 356 358 424 274 438 138 460 20 342 42 206 56 124 124 56 206 42ZM240 140C178 140 128 198 142 262 150 300 180 330 218 338 256 346 292 332 314 306 320 298 318 286 310 282L302 278C296 274 288 276 282 280 260 304 222 306 196 282 182 270 176 250 178 230 184 200 210 180 240 180 258 180 272 188 284 198 290 204 298 206 304 202L310 198C320 192 322 180 314 174 296 152 268 140 240 140Z"/>
</svg>