<svg xmlns="http://www.w3.org/2000/svg" viewBox="0 0 480 480" height="480" width="480">
  <path d="M380 60C352 60 330 82 330 110 330 118 332 124 334 130L294 174C282 166 266 160 250 160 236 160 222 164 210 172L164 126 164 126C168 118 170 110 170 100 170 66 144 40 110 40S50 66 50 100 76 160 110 160C120 160 128 158 136 154L136 154 182 200C174 212 170 226 170 240 170 260 178 278 190 292L138 344C132 342 126 340 120 340 92 340 70 362 70 390S92 440 120 440 170 418 170 390C170 384 168 378 166 372L222 316C230 320 240 320 248 320 292 320 328 284 328 240 328 228 324 216 320 204L362 156C368 158 374 160 380 160 408 160 430 138 430 110S408 60 380 60ZM250 280C228 280 210 262 210 240S228 200 250 200 290 218 290 240 272 280 250 280Z"/>
</svg>