<svg xmlns="http://www.w3.org/2000/svg" viewBox="0 0 480 480" height="480" width="480">
  <path d="M440 158C440 156 440 156 440 154 440 154 440 154 440 152 440 150 440 150 438 148 438 148 438 148 436 146 436 146 434 144 434 144 434 144 432 144 432 142 432 142 430 140 430 140 430 140 430 140 430 140 430 140 430 140 430 140L250 40C244 36 236 36 230 40L50 140C50 140 50 140 50 140 50 140 50 140 50 140 50 140 48 140 48 142 48 142 46 144 46 144 46 144 44 146 44 146 44 146 42 148 42 148 42 148 42 150 40 150 40 150 40 152 40 152 40 154 40 154 40 156 40 160 40 160 40 160V160 160 320C40 328 44 334 50 338L230 438 230 438C230 438 230 438 230 438L230 438C230 438 232 438 232 440 232 440 234 440 234 440 236 440 238 440 240 440S244 440 246 440C246 440 248 440 248 440 248 440 250 440 250 438L250 438C250 438 250 438 250 438L250 438 430 338C436 334 440 328 440 320L440 158 440 158 440 158C440 160 440 160 440 158ZM240 238L102 160 158 130 294 208 240 238ZM240 82L378 160 334 184 198 106 240 82ZM260 386L260 272 320 238V300L360 280V216L400 194V308L260 386Z"/>
</svg>