<svg xmlns="http://www.w3.org/2000/svg" viewBox="0 0 480 480" height="480" width="480">
  <path d="M424 40H56C48 40 40 48 40 56V424C40 432 48 440 56 440H424C432 440 440 432 440 424V56C440 48 432 40 424 40ZM386 282L300 366C256 410 186 418 136 380 78 334 74 250 124 198L224 100C258 66 314 68 346 102 378 136 378 188 346 222L250 318C232 336 204 340 182 326 154 306 152 268 174 246L262 158C268 152 276 152 282 158L288 164C294 170 294 178 288 184L200 272C194 278 192 290 200 296 206 302 218 304 224 296 224 296 224 296 224 296L320 200C338 182 342 154 328 132 308 104 270 102 248 124L150 222C112 258 116 320 158 354 180 370 208 376 234 368 248 364 262 356 272 344L360 256C366 250 374 250 380 256L384 260C392 268 392 276 386 282Z"/>
</svg>