<svg xmlns="http://www.w3.org/2000/svg" viewBox="0 0 480 480" height="480" width="480">
  <path d="M400 60H80C58 60 40 78 40 100V180C40 202 58 220 80 220H400C422 220 440 202 440 180V100C440 78 422 60 400 60ZM284 160H276C268 160 260 152 260 144V136C260 128 268 120 276 120H284C292 120 300 128 300 136V144C300 152 292 160 284 160ZM364 160H356C348 160 340 152 340 144V136C340 128 348 120 356 120H364C372 120 380 128 380 136V144C380 152 372 160 364 160ZM400 260H80C58 260 40 278 40 300V380C40 402 58 420 80 420H400C422 420 440 402 440 380V300C440 278 422 260 400 260ZM284 360H276C268 360 260 352 260 344V336C260 328 268 320 276 320H284C292 320 300 328 300 336V344C300 352 292 360 284 360ZM364 360H356C348 360 340 352 340 344V336C340 328 348 320 356 320H364C372 320 380 328 380 336V344C380 352 372 360 364 360Z"/>
</svg>