<svg xmlns="http://www.w3.org/2000/svg" viewBox="0 0 480 480" height="480" width="480">
  <path d="M390 74L240 40 90 74C82 76 76 82 76 92V274C76 310 94 344 124 364L240 440 354 364C384 344 402 310 402 274V92C404 82 398 76 390 74ZM302 256C308 262 308 272 302 278L296 284C290 290 280 290 274 284L240 250 206 284C200 290 190 290 184 284L178 278C172 272 172 262 178 256L212 222 178 188C170 180 170 170 178 164L184 158C190 152 200 152 206 158L240 194 274 160C280 154 290 154 296 160L302 166C308 172 308 182 302 188L268 222 302 256Z"/>
</svg>