<svg xmlns="http://www.w3.org/2000/svg" viewBox="0 0 480 480" height="480" width="480">
  <path d="M60 100V380C60 402 78 420 100 420H380C402 420 420 402 420 380V100C420 78 402 60 380 60H100C78 60 60 78 60 100ZM216 140H344C352 140 360 148 360 156V164C360 172 352 180 344 180H216C208 180 200 172 200 164V156C200 148 208 140 216 140ZM216 220H344C352 220 360 228 360 236V244C360 252 352 260 344 260H216C208 260 200 252 200 244V236C200 228 208 220 216 220ZM216 300H344C352 300 360 308 360 316V324C360 332 352 340 344 340H216C208 340 200 332 200 324V316C200 308 208 300 216 300ZM136 140H144C152 140 160 148 160 156V164C160 172 152 180 144 180H136C128 180 120 172 120 164V156C120 148 128 140 136 140ZM136 220H144C152 220 160 228 160 236V244C160 252 152 260 144 260H136C128 260 120 252 120 244V236C120 228 128 220 136 220ZM136 300H144C152 300 160 308 160 316V324C160 332 152 340 144 340H136C128 340 120 332 120 324V316C120 308 128 300 136 300Z"/>
</svg>