<svg xmlns="http://www.w3.org/2000/svg" viewBox="0 0 480 480" height="480" width="480">
  <path d="M400 230C396 230 390 232 386 232L338 192C340 190 340 184 340 180 340 152 318 130 290 130S240 152 240 180C240 188 242 196 246 202L188 270C186 270 184 270 180 270 176 270 174 270 170 272L118 220C120 216 120 214 120 210 120 188 102 170 80 170S40 188 40 210 58 250 80 250C84 250 86 250 90 248L142 300C140 304 140 306 140 310 140 332 158 350 180 350S220 332 220 310C220 306 220 300 218 296L276 228C280 230 286 230 290 230 298 230 306 228 312 224L360 264C360 266 360 268 360 270 360 292 378 310 400 310S440 292 440 270 422 230 400 230Z"/>
</svg>