<svg xmlns="http://www.w3.org/2000/svg" viewBox="0 0 480 480" height="480" width="480">
  <path d="M422 386V422H58V386H76V264C54 248 40 222 40 194 40 180 44 166 52 152L100 68C104 62 110 58 116 58H362C368 58 374 62 378 68L428 154C450 192 440 240 404 264V386H422ZM128 94L82 172C72 196 84 222 108 232 128 240 152 232 164 214 170 198 192 198 198 214 204 228 214 238 228 242 252 248 274 234 282 214 288 198 310 198 316 214 320 226 328 238 342 240 386 250 414 212 400 180 400 178 398 176 396 174L352 98H128L128 94Z"/>
</svg>