<svg xmlns="http://www.w3.org/2000/svg" viewBox="0 0 480 480" height="480" width="480">
  <path d="M258 54L258 96C324 104 376 156 384 222H426C434 222 440 228 440 236V244C440 252 434 258 426 258L384 258C376 324 324 376 258 384L258 426C258 434 252 440 244 440H236C228 440 222 434 222 426V384C156 376 104 324 96 258L54 258C46 258 40 252 40 244V236C40 228 46 222 54 222H96C104 156 156 104 222 96V54C222 46 228 40 236 40H244C252 40 258 46 258 54ZM240 204C220 204 204 220 204 240S220 276 240 276 276 260 276 240 260 204 240 204Z"/>
</svg>