<?xml version="1.0" encoding="utf-8"?>
<!-- Generator: Adobe Illustrator 23.0.5, SVG Export Plug-In . SVG Version: 6.00 Build 0)  -->
<svg version="1.1" id="tooIcon" xmlns="http://www.w3.org/2000/svg" xmlns:xlink="http://www.w3.org/1999/xlink" x="0px" y="0px"
	 viewBox="0 0 24 24" style="enable-background:new 0 0 24 24;" xml:space="preserve">
<style type="text/css">
	.st0{fill:none;}
	.st1{display:none;}
	.st2{display:inline;}
</style>
<g id="back">
	<g id="guide">
	</g>
	
		<rect id="main_1_" x="0" y="0" transform="matrix(6.928204e-07 1 -1 6.928204e-07 24 -8.313842e-06)" class="st0" width="24" height="24"/>
</g>
<g id="Arrow" class="st1">
	<g id="fill">
		<path id="arrow-back" class="st2" d="M8.3,7.6v2.3c0,0.7-0.8,1-1.3,0.6L3,7.2C2.6,6.8,2.6,6.3,3,5.9l4-3.3
			c0.5-0.4,1.3-0.1,1.3,0.6v2.3c0,0,0,0,0,0l4.7,0c4,0,7.6,2.9,8.2,6.8c0.7,4.9-3.1,9.2-7.9,9.2H5.1c-0.4,0-0.8-0.4-0.8-0.8v-0.4
			c0-0.4,0.4-0.8,0.8-0.8l7.9,0c3.3,0,6.2-2.5,6.3-5.8c0.1-3.4-2.6-6.2-6-6.2L8.3,7.6C8.3,7.5,8.3,7.6,8.3,7.6z"/>
		<path id="arrow-donw-left" class="st2" d="M12.5,12.9l3.6,3.6c0.5,0.5,0.1,1.4-0.6,1.4H7c-0.4,0-0.8-0.4-0.8-0.8V8.5
			c0-0.7,0.9-1.1,1.4-0.6l3.6,3.6l5.1-5.1c0.3-0.3,0.8-0.3,1.1,0l0.3,0.3c0.3,0.3,0.3,0.8,0,1.1L12.5,12.9z"/>
		<path id="arrow-down-alt" class="st2" d="M11.4,14.6l-4.1-4.1C6.9,10,7.2,9.2,7.9,9.2h8.1c0.7,0,1.1,0.9,0.6,1.4l-4.1,4.1
			C12.3,14.9,11.7,14.9,11.4,14.6z"/>
		<path id="arrow-left-alt" class="st2" d="M9.4,11.4l4.1-4.1c0.5-0.5,1.4-0.1,1.4,0.6v8.1c0,0.7-0.9,1.1-1.4,0.6l-4.1-4.1
			C9.1,12.3,9.1,11.7,9.4,11.4z"/>
		<path id="arrow-right-alt" class="st2" d="M14.6,11.4l-4.1-4.1C10,6.9,9.2,7.2,9.2,7.9v8.1c0,0.7,0.9,1.1,1.4,0.6l4.1-4.1
			C14.9,12.3,14.9,11.7,14.6,11.4z"/>
		<path id="arrow-up-alt" class="st2" d="M11.4,9.4l-4.1,4.1c-0.5,0.5-0.1,1.4,0.6,1.4l8.1,0c0.7,0,1.1-0.9,0.6-1.4l-4.1-4.1
			C12.3,9.1,11.7,9.1,11.4,9.4z"/>
		<path id="arrow-donw-right" class="st2" d="M11.5,12.9l-3.6,3.6c-0.5,0.5-0.1,1.4,0.6,1.4H17c0.4,0,0.8-0.4,0.8-0.8V8.5
			c0-0.7-0.9-1.1-1.4-0.6l-3.6,3.6L7.8,6.4C7.5,6.1,7,6.1,6.7,6.4L6.4,6.7C6.1,7,6.1,7.5,6.4,7.8L11.5,12.9z"/>
		<path id="arrow-up-left" class="st2" d="M12.5,11.1l3.6-3.6c0.5-0.5,0.1-1.4-0.6-1.4H7C6.5,6.2,6.2,6.5,6.2,7v8.6
			c0,0.7,0.9,1.1,1.4,0.6l3.6-3.6l5.1,5.1c0.3,0.3,0.8,0.3,1.1,0l0.3-0.3c0.3-0.3,0.3-0.8,0-1.1L12.5,11.1z"/>
		<path id="arrow-up-right" class="st2" d="M11.5,11.1L7.9,7.5C7.4,7,7.8,6.2,8.5,6.2H17c0.4,0,0.8,0.4,0.8,0.8v8.6
			c0,0.7-0.9,1.1-1.4,0.6l-3.6-3.6l-5.1,5.1c-0.3,0.3-0.8,0.3-1.1,0l-0.3-0.3c-0.3-0.3-0.3-0.8,0-1.1L11.5,11.1z"/>
		<path id="arrow-down" class="st2" d="M13,12.2h5.1c0.7,0,1.1,0.9,0.6,1.4l-6.1,6.1c-0.3,0.3-0.8,0.3-1.1,0l-6.1-6.1
			c-0.5-0.5-0.1-1.4,0.6-1.4H11V5c0-0.4,0.4-0.8,0.8-0.8h0.4C12.6,4.2,13,4.5,13,5V12.2z"/>
		<path id="arrow-up" class="st2" d="M13,11.8h5.1c0.7,0,1.1-0.9,0.6-1.4l-6.1-6.1c-0.3-0.3-0.8-0.3-1.1,0l-6.1,6.1
			c-0.5,0.5-0.1,1.4,0.6,1.4H11V19c0,0.4,0.4,0.8,0.8,0.8h0.4c0.4,0,0.8-0.4,0.8-0.8V11.8z"/>
		<path id="arrow-left" class="st2" d="M11.8,13v5.1c0,0.7-0.9,1.1-1.4,0.6l-6.1-6.1c-0.3-0.3-0.3-0.8,0-1.1l6.1-6.1
			c0.5-0.5,1.4-0.1,1.4,0.6V11H19c0.4,0,0.8,0.4,0.8,0.8v0.4c0,0.4-0.4,0.8-0.8,0.8H11.8z"/>
		<path id="arrow-right" class="st2" d="M12.2,13v5.1c0,0.7,0.9,1.1,1.4,0.6l6.1-6.1c0.3-0.3,0.3-0.8,0-1.1l-6.1-6.1
			c-0.5-0.5-1.4-0.1-1.4,0.6V11H5c-0.4,0-0.8,0.4-0.8,0.8v0.4C4.2,12.6,4.5,13,5,13H12.2z"/>
		<path id="arrow-forward" class="st2" d="M15.7,7.6v2.3c0,0.7,0.8,1,1.3,0.6l4-3.3c0.4-0.3,0.4-0.9,0-1.2l-4-3.3
			c-0.5-0.4-1.3-0.1-1.3,0.6v2.3c0,0,0,0,0,0l-4.7,0c-4,0-7.6,2.9-8.2,6.8c-0.7,4.9,3.1,9.2,7.9,9.2h8.2c0.4,0,0.8-0.4,0.8-0.8v-0.4
			c0-0.4-0.4-0.8-0.8-0.8l-7.9,0c-3.3,0-6.2-2.5-6.3-5.8c-0.1-3.4,2.6-6.2,6-6.2L15.7,7.6C15.7,7.5,15.7,7.6,15.7,7.6z"/>
		<path id="arrow-right-left" class="st2" d="M16,16v-2.1c0-0.7,0.9-1.1,1.4-0.6l3.1,3.1c0.3,0.3,0.3,0.8,0,1.1l-3.1,3.1
			c-0.5,0.5-1.4,0.1-1.4-0.6V18H4.8C4.4,18,4,17.6,4,17.2v-0.4C4,16.4,4.4,16,4.8,16H16z M8,3.9V6l11.2,0C19.6,6,20,6.4,20,6.8v0.4
			C20,7.6,19.6,8,19.2,8H8v2.1c0,0.7-0.9,1.1-1.4,0.6L3.6,7.6c-0.3-0.3-0.3-0.8,0-1.1l3.1-3.1C7.1,2.9,8,3.2,8,3.9z"/>
		<path id="arrow-up-down" class="st2" d="M16,16h-2.1c-0.7,0-1.1,0.9-0.6,1.4l3.1,3.1c0.3,0.3,0.8,0.3,1.1,0l3.1-3.1
			c0.5-0.5,0.1-1.4-0.6-1.4H18l0-11.2C18,4.4,17.6,4,17.2,4l-0.4,0C16.4,4,16,4.4,16,4.8L16,16z M3.9,8L6,8l0,11.2
			C6,19.6,6.4,20,6.8,20h0.4C7.6,20,8,19.6,8,19.2L8,8h2.1c0.7,0,1.1-0.9,0.6-1.4L7.6,3.6c-0.3-0.3-0.8-0.3-1.1,0L3.4,6.6
			C2.9,7.1,3.2,8,3.9,8z"/>
		<path id="enter" class="st2" d="M19.5,7.1h-0.4c-0.4,0-0.8,0.4-0.8,0.8l0,4.2h-10V10c0-0.7-0.9-1.1-1.4-0.6l-3.1,3.1
			c-0.3,0.3-0.3,0.8,0,1.1L7,16.7c0.5,0.5,1.4,0.1,1.4-0.6v-2.1l11.2,0c0.4,0,0.8-0.4,0.8-0.8V7.9C20.3,7.4,20,7.1,19.5,7.1z"/>
	</g>
	<g id="line">
		<path id="arrow-back_1_" class="st2" d="M6.2,7.8l2,2c0.3,0.3,0.3,0.8,0,1.1l-0.3,0.3c-0.3,0.3-0.8,0.3-1.1,0L2.9,7.4
			c-0.3-0.3-0.3-0.8,0-1.1l3.8-3.8c0.3-0.3,0.8-0.3,1.1,0l0.3,0.3c0.3,0.3,0.3,0.8,0,1.1l-2,2l6.9,0c4.3,0,8,3.2,8.3,7.5
			c0.3,4.7-3.4,8.5-8,8.5H5.1c-0.4,0-0.8-0.4-0.8-0.8v-0.4c0-0.4,0.4-0.8,0.8-0.8l8,0c3.3,0,6.2-2.5,6.2-5.8c0.1-3.4-2.6-6.2-6-6.2
			H6.2z"/>
		<path id="arrow-forward_1_" class="st2" d="M17.8,7.8l-2,2c-0.3,0.3-0.3,0.8,0,1.1l0.3,0.3c0.3,0.3,0.8,0.3,1.1,0l3.8-3.8
			c0.3-0.3,0.3-0.8,0-1.1l-3.8-3.8c-0.3-0.3-0.8-0.3-1.1,0l-0.3,0.3c-0.3,0.3-0.3,0.8,0,1.1l2,2l-6.9,0c-4.3,0-8,3.2-8.3,7.5
			c-0.3,4.7,3.4,8.5,8,8.5h8.2c0.4,0,0.8-0.4,0.8-0.8v-0.4c0-0.4-0.4-0.8-0.8-0.8l-8,0c-3.3,0-6.2-2.5-6.2-5.8
			c-0.1-3.4,2.6-6.2,6-6.2H17.8z"/>
		<path id="arrow-donw-left_1_" class="st2" d="M8.2,14.4l8-8c0.3-0.3,0.8-0.3,1.1,0l0.3,0.3c0.3,0.3,0.3,0.8,0,1.1l-8,8h6.8
			c0.4,0,0.8,0.4,0.8,0.8V17c0,0.4-0.4,0.8-0.8,0.8H7c-0.4,0-0.8-0.4-0.8-0.8V7.6c0-0.4,0.4-0.8,0.8-0.8h0.4c0.4,0,0.8,0.4,0.8,0.8
			V14.4L8.2,14.4z"/>
		<path id="arrow-donw-right_1_" class="st2" d="M15.8,14.4l-8-8C7.5,6.1,7,6.1,6.7,6.4L6.4,6.7C6.1,7,6.1,7.5,6.4,7.8l8,8H7.6
			c-0.4,0-0.8,0.4-0.8,0.8V17c0,0.4,0.4,0.8,0.8,0.8H17c0.4,0,0.8-0.4,0.8-0.8V7.6c0-0.4-0.4-0.8-0.8-0.8h-0.4
			c-0.4,0-0.8,0.4-0.8,0.8V14.4L15.8,14.4z"/>
		<path id="arrow-up-right_1_" class="st2" d="M15.8,9.6l-8,8c-0.3,0.3-0.8,0.3-1.1,0l-0.3-0.3c-0.3-0.3-0.3-0.8,0-1.1l8-8H7.6
			c-0.4,0-0.8-0.4-0.8-0.8V7c0-0.4,0.4-0.8,0.8-0.8H17c0.4,0,0.8,0.4,0.8,0.8v9.4c0,0.4-0.4,0.8-0.8,0.8h-0.4
			c-0.4,0-0.8-0.4-0.8-0.8V9.6L15.8,9.6z"/>
		<path id="arrow-up-left_1_" class="st2" d="M8.2,9.6l8,8c0.3,0.3,0.8,0.3,1.1,0l0.3-0.3c0.3-0.3,0.3-0.8,0-1.1l-8-8h6.8
			c0.4,0,0.8-0.4,0.8-0.8V7c0-0.4-0.4-0.8-0.8-0.8H7C6.5,6.2,6.2,6.5,6.2,7v9.4c0,0.4,0.4,0.8,0.8,0.8h0.4c0.4,0,0.8-0.4,0.8-0.8
			V9.6L8.2,9.6z"/>
		<path id="arrow-down_1_" class="st2" d="M13,16.3l4.8-4.8c0.3-0.3,0.8-0.3,1.1,0l0.3,0.3c0.3,0.3,0.3,0.8,0,1.1l-6.6,6.6
			c-0.3,0.3-0.8,0.3-1.1,0L4.8,13c-0.3-0.3-0.3-0.8,0-1.1l0.3-0.3c0.3-0.3,0.8-0.3,1.1,0l4.8,4.8V5c0-0.4,0.4-0.8,0.8-0.8h0.4
			C12.6,4.2,13,4.5,13,5V16.3z"/>
		<path id="arrow-up_1_" class="st2" d="M13,7.7l4.8,4.8c0.3,0.3,0.8,0.3,1.1,0l0.3-0.3c0.3-0.3,0.3-0.8,0-1.1l-6.6-6.6
			c-0.3-0.3-0.8-0.3-1.1,0L4.8,11c-0.3,0.3-0.3,0.8,0,1.1l0.3,0.3c0.3,0.3,0.8,0.3,1.1,0L11,7.7V19c0,0.4,0.4,0.8,0.8,0.8h0.4
			c0.4,0,0.8-0.4,0.8-0.8V7.7z"/>
		<path id="arrow-left_1_" class="st2" d="M7.7,11l4.8-4.8c0.3-0.3,0.3-0.8,0-1.1l-0.3-0.3c-0.3-0.3-0.8-0.3-1.1,0l-6.6,6.6
			c-0.3,0.3-0.3,0.8,0,1.1l6.6,6.6c0.3,0.3,0.8,0.3,1.1,0l0.3-0.3c0.3-0.3,0.3-0.8,0-1.1L7.7,13L19,13c0.4,0,0.8-0.4,0.8-0.8v-0.4
			c0-0.4-0.4-0.8-0.8-0.8L7.7,11z"/>
		<path id="arrow-right_1_" class="st2" d="M16.3,11l-4.8-4.8c-0.3-0.3-0.3-0.8,0-1.1l0.3-0.3c0.3-0.3,0.8-0.3,1.1,0l6.6,6.6
			c0.3,0.3,0.3,0.8,0,1.1L13,19.2c-0.3,0.3-0.8,0.3-1.1,0l-0.3-0.3c-0.3-0.3-0.3-0.8,0-1.1l4.8-4.8L5,13c-0.4,0-0.8-0.4-0.8-0.8
			v-0.4C4.2,11.4,4.5,11,5,11L16.3,11z"/>
		<path id="arrow-down-alt_1_" class="st2" d="M12,13.1l4.4-4.4c0.3-0.3,0.8-0.3,1.1,0L17.8,9c0.3,0.3,0.3,0.8,0,1.1l-5.2,5.2
			c-0.3,0.3-0.8,0.3-1.1,0l-5.2-5.2C5.9,9.8,5.9,9.3,6.2,9l0.3-0.3c0.3-0.3,0.8-0.3,1.1,0L12,13.1z"/>
		<path id="arrow-up-alt_1_" class="st2" d="M12,10.9l4.4,4.4c0.3,0.3,0.8,0.3,1.1,0l0.3-0.3c0.3-0.3,0.3-0.8,0-1.1l-5.2-5.2
			c-0.3-0.3-0.8-0.3-1.1,0l-5.2,5.2c-0.3,0.3-0.3,0.8,0,1.1l0.3,0.3c0.3,0.3,0.8,0.3,1.1,0L12,10.9z"/>
		<path id="arrow-left-alt_1_" class="st2" d="M10.9,12l4.4-4.4c0.3-0.3,0.3-0.8,0-1.1L15,6.2c-0.3-0.3-0.8-0.3-1.1,0l-5.2,5.2
			c-0.3,0.3-0.3,0.8,0,1.1l5.2,5.2c0.3,0.3,0.8,0.3,1.1,0l0.3-0.3c0.3-0.3,0.3-0.8,0-1.1L10.9,12z"/>
		<path id="arrow-right-alt_1_" class="st2" d="M13.1,12L8.7,7.6c-0.3-0.3-0.3-0.8,0-1.1L9,6.2c0.3-0.3,0.8-0.3,1.1,0l5.2,5.2
			c0.3,0.3,0.3,0.8,0,1.1l-5.2,5.2c-0.3,0.3-0.8,0.3-1.1,0l-0.3-0.3c-0.3-0.3-0.3-0.8,0-1.1L13.1,12z"/>
		<path id="arrow-right-left_1_" class="st2" d="M16.6,12.6l3.8,3.8c0.3,0.3,0.3,0.8,0,1.1l-3.8,3.8c-0.3,0.3-0.8,0.3-1.1,0
			l-0.3-0.3c-0.3-0.3-0.3-0.8,0-1.1l2-2L4.8,18C4.4,18,4,17.6,4,17.2v-0.4C4,16.4,4.4,16,4.8,16h12.4l-2-2c-0.3-0.3-0.3-0.8,0-1.1
			l0.3-0.3C15.8,12.3,16.3,12.3,16.6,12.6z M8.5,2.6l0.3,0.3c0.3,0.3,0.3,0.8,0,1.1l-2,2h12.4C19.6,6,20,6.4,20,6.8v0.4
			C20,7.6,19.6,8,19.2,8H6.8l2,2c0.3,0.3,0.3,0.8,0,1.1l-0.3,0.3c-0.3,0.3-0.8,0.3-1.1,0L3.6,7.6c-0.3-0.3-0.3-0.8,0-1.1l3.8-3.8
			C7.7,2.3,8.2,2.3,8.5,2.6z"/>
		<path id="arrow-up-down_1_" class="st2" d="M11.4,7.4L7.6,3.6c-0.3-0.3-0.8-0.3-1.1,0L2.6,7.4c-0.3,0.3-0.3,0.8,0,1.1l0.3,0.3
			c0.3,0.3,0.8,0.3,1.1,0l2-2l0,12.4C6,19.6,6.4,20,6.8,20h0.4C7.6,20,8,19.6,8,19.2V6.8l2,2c0.3,0.3,0.8,0.3,1.1,0l0.3-0.3
			C11.7,8.2,11.7,7.7,11.4,7.4z M21.4,15.5l-0.3-0.3c-0.3-0.3-0.8-0.3-1.1,0l-2,2V4.8C18,4.4,17.6,4,17.2,4h-0.4
			C16.4,4,16,4.4,16,4.8v12.4l-2-2c-0.3-0.3-0.8-0.3-1.1,0l-0.3,0.3c-0.3,0.3-0.3,0.8,0,1.1l3.8,3.8c0.3,0.3,0.8,0.3,1.1,0l3.8-3.8
			C21.7,16.3,21.7,15.8,21.4,15.5z"/>
		<path id="enter_1_" class="st2" d="M20.3,7.3c0-0.4-0.4-0.8-0.8-0.8h-0.4c-0.4,0-0.8,0.4-0.8,0.8l0,4.6H7.2l2-2
			c0.3-0.3,0.3-0.8,0-1.1L8.8,8.5C8.5,8.2,8,8.2,7.7,8.5l-3.8,3.8c-0.3,0.3-0.3,0.8,0,1.1l3.8,3.8c0.3,0.3,0.8,0.3,1.1,0L9.1,17
			c0.3-0.3,0.3-0.8,0-1.1l-2-2l12.4,0c0.4,0,0.8-0.4,0.8-0.8V7.3z"/>
	</g>
</g>
<g id="Building" class="st1">
	<g id="fill_1_" class="st2">
		<path id="home" class="st1" d="M20,20.8c0,0.6-0.4,1-1,1H5c-0.6,0-1-0.4-1-1v-9H3.1c-0.7,0-1.1-0.9-0.5-1.4l8.8-8
			c0.4-0.3,1-0.3,1.3,0l8.8,8c0.5,0.5,0.2,1.4-0.5,1.4H20V20.8z"/>
		<path id="bank" class="st1" d="M2.8,20h18.4c0.4,0,0.8,0.4,0.8,0.8v0.4c0,0.4-0.4,0.8-0.8,0.8H2.8C2.4,22,2,21.6,2,21.2v-0.4
			C2,20.3,2.4,20,2.8,20z M4.8,12h0.4C5.6,12,6,12.3,6,12.8v5.4C6,18.6,5.6,19,5.2,19H4.8C4.4,19,4,18.6,4,18.2v-5.4
			C4,12.3,4.4,12,4.8,12z M9.8,12h0.4c0.4,0,0.8,0.4,0.8,0.8v5.4c0,0.4-0.4,0.8-0.8,0.8H9.8C9.4,19,9,18.6,9,18.2v-5.4
			C9,12.3,9.4,12,9.8,12z M13.8,12h0.4c0.4,0,0.8,0.4,0.8,0.8v5.4c0,0.4-0.4,0.8-0.8,0.8h-0.4c-0.4,0-0.8-0.4-0.8-0.8v-5.4
			C13,12.3,13.4,12,13.8,12z M18.8,12h0.4c0.4,0,0.8,0.4,0.8,0.8v5.4c0,0.4-0.4,0.8-0.8,0.8h-0.4c-0.4,0-0.8-0.4-0.8-0.8v-5.4
			C18,12.3,18.4,12,18.8,12z M2.4,6.7l9.2-4.6c0.2-0.1,0.5-0.1,0.7,0l9.2,4.6C21.8,6.9,22,7.1,22,7.4v2.7c0,0.4-0.4,0.8-0.8,0.8H2.8
			C2.4,11,2,10.6,2,10.2V7.4C2,7.1,2.2,6.9,2.4,6.7z M12,8c0.6,0,1-0.4,1-1s-0.4-1-1-1s-1,0.4-1,1S11.4,8,12,8z"/>
		<path id="building" class="st1" d="M21,20h1.2c0.4,0,0.8,0.4,0.8,0.8V22H1v-1.2C1,20.4,1.4,20,1.8,20H3V2.8C3,2.4,3.4,2,3.8,2
			h16.4C20.6,2,21,2.4,21,2.8V20z M8,11.8v0.4C8,12.6,8.4,13,8.8,13h1.4c0.4,0,0.8-0.4,0.8-0.8v-0.4c0-0.4-0.4-0.8-0.8-0.8H8.8
			C8.4,11,8,11.4,8,11.8z M8,7.8v0.4C8,8.6,8.4,9,8.8,9h1.4C10.6,9,11,8.6,11,8.2V7.8C11,7.4,10.6,7,10.2,7H8.8C8.4,7,8,7.4,8,7.8z
			 M8,15.8v0.4C8,16.6,8.4,17,8.8,17h1.4c0.4,0,0.8-0.4,0.8-0.8v-0.4c0-0.4-0.4-0.8-0.8-0.8H8.8C8.4,15,8,15.4,8,15.8z M13,15.8v0.4
			c0,0.4,0.4,0.8,0.8,0.8h1.4c0.4,0,0.8-0.4,0.8-0.8v-0.4c0-0.4-0.4-0.8-0.8-0.8h-1.4C13.4,15,13,15.4,13,15.8z M13,11.8v0.4
			c0,0.4,0.4,0.8,0.8,0.8h1.4c0.4,0,0.8-0.4,0.8-0.8v-0.4c0-0.4-0.4-0.8-0.8-0.8h-1.4C13.4,11,13,11.4,13,11.8z M13,7.8v0.4
			C13,8.6,13.4,9,13.8,9h1.4C15.6,9,16,8.6,16,8.2V7.8C16,7.4,15.6,7,15.2,7h-1.4C13.4,7,13,7.4,13,7.8z"/>
		<path id="store" class="st1" d="M22,20v2H2v-2h1v-6.8C1.7,12.4,1,11,1,9.5c0-0.8,0.2-1.6,0.6-2.3l2.7-4.7C4.5,2.2,4.9,2,5.2,2
			h13.6c0.4,0,0.7,0.2,0.9,0.5l2.7,4.7c1.2,2.1,0.6,4.7-1.4,6.1V20H22z M5.8,4L3.4,8.2C2.8,9.5,3.5,11,4.7,11.5c1.1,0.5,2.5,0,3.1-1
			c0.3-0.8,1.5-0.8,1.8,0c0.3,0.7,0.9,1.3,1.7,1.5c1.3,0.3,2.5-0.4,3-1.5c0.3-0.8,1.5-0.8,1.9,0c0.3,0.7,0.7,1.3,1.4,1.5
			c2.4,0.6,3.9-1.6,3.2-3.4c0-0.1-0.1-0.2-0.2-0.4L18.2,4H5.8L5.8,4z"/>
		<path id="factory" class="st1" d="M10,10.8V3.1c0-0.6,0.6-1,1.2-0.7L21,7.7v14H3V8.9C3,8.4,3.6,8,4.1,8.2L10,10.8z"/>
	</g>
	<g id="line_1_" class="st2">
		<path id="home_1_" class="st1" d="M19,21.8H5c-0.6,0-1-0.4-1-1v-9H3.1c-0.7,0-1.1-0.9-0.5-1.4l8.8-8c0.4-0.3,1-0.3,1.3,0l8.8,8
			c0.5,0.5,0.2,1.4-0.5,1.4H20v9C20,21.4,19.6,21.8,19,21.8z M6,19.8h12V10l-6-5.5L6,10V19.8z"/>
		<path id="bank_1_" class="st1" d="M2.8,20h18.4c0.4,0,0.8,0.4,0.8,0.8v0.4c0,0.4-0.4,0.8-0.8,0.8H2.8C2.4,22,2,21.6,2,21.2v-0.4
			C2,20.3,2.4,20,2.8,20z M4.8,12h0.4C5.6,12,6,12.3,6,12.8v5.4C6,18.6,5.6,19,5.2,19H4.8C4.4,19,4,18.6,4,18.2v-5.4
			C4,12.3,4.4,12,4.8,12z M9.8,12h0.4c0.4,0,0.8,0.4,0.8,0.8v5.4c0,0.4-0.4,0.8-0.8,0.8H9.8C9.4,19,9,18.6,9,18.2v-5.4
			C9,12.3,9.4,12,9.8,12z M13.8,12h0.4c0.4,0,0.8,0.4,0.8,0.8v5.4c0,0.4-0.4,0.8-0.8,0.8h-0.4c-0.4,0-0.8-0.4-0.8-0.8v-5.4
			C13,12.3,13.4,12,13.8,12z M18.8,12h0.4c0.4,0,0.8,0.4,0.8,0.8v5.4c0,0.4-0.4,0.8-0.8,0.8h-0.4c-0.4,0-0.8-0.4-0.8-0.8v-5.4
			C18,12.3,18.4,12,18.8,12z M2.4,6.7l9.2-4.6c0.2-0.1,0.5-0.1,0.7,0l9.2,4.6C21.8,6.9,22,7.1,22,7.4v2.7c0,0.4-0.4,0.8-0.8,0.8H2.8
			C2.4,11,2,10.6,2,10.2V7.4C2,7.1,2.2,6.9,2.4,6.7z M4,8.2V9h16V8.2l-7.6-3.8c-0.2-0.1-0.5-0.1-0.7,0L4,8.2z M12,8
			c-0.6,0-1-0.4-1-1s0.4-1,1-1s1,0.4,1,1S12.6,8,12,8z"/>
		<path id="building_1_" class="st1" d="M21,20h1.2c0.4,0,0.8,0.4,0.8,0.8V22H1v-1.2C1,20.4,1.4,20,1.8,20H3V2.8C3,2.4,3.4,2,3.8,2
			h16.4C20.6,2,21,2.4,21,2.8V20z M19,20V4H5v16H19z M8.8,11h1.4c0.4,0,0.8,0.4,0.8,0.8v0.4c0,0.4-0.4,0.8-0.8,0.8H8.8
			C8.4,13,8,12.6,8,12.2v-0.4C8,11.4,8.4,11,8.8,11z M8.8,7h1.4C10.6,7,11,7.4,11,7.8v0.4C11,8.6,10.6,9,10.2,9H8.8
			C8.4,9,8,8.6,8,8.2V7.8C8,7.4,8.4,7,8.8,7z M8.8,15h1.4c0.4,0,0.8,0.4,0.8,0.8v0.4c0,0.4-0.4,0.8-0.8,0.8H8.8
			C8.4,17,8,16.6,8,16.2v-0.4C8,15.4,8.4,15,8.8,15z M13.8,15h1.4c0.4,0,0.8,0.4,0.8,0.8v0.4c0,0.4-0.4,0.8-0.8,0.8h-1.4
			c-0.4,0-0.8-0.4-0.8-0.8v-0.4C13,15.4,13.4,15,13.8,15z M13.8,11h1.4c0.4,0,0.8,0.4,0.8,0.8v0.4c0,0.4-0.4,0.8-0.8,0.8h-1.4
			c-0.4,0-0.8-0.4-0.8-0.8v-0.4C13,11.4,13.4,11,13.8,11z M13.8,7h1.4C15.6,7,16,7.4,16,7.8v0.4C16,8.6,15.6,9,15.2,9h-1.4
			C13.4,9,13,8.6,13,8.2V7.8C13,7.4,13.4,7,13.8,7z"/>
		<path id="store_1_" class="st1" d="M2,20h1v-6.8C1.7,12.4,1,11,1,9.5c0-0.8,0.2-1.6,0.6-2.3l2.7-4.7C4.5,2.2,4.9,2,5.2,2h13.6
			c0.4,0,0.7,0.2,0.9,0.5l2.7,4.7c1.2,2.1,0.6,4.7-1.4,6.1V20h1v2H2V20 M19,14c-1.4,0.2-2.8-0.3-3.7-1.4c-0.8,0.9-2,1.4-3.3,1.4
			c-1.2,0-2.4-0.5-3.3-1.4c-1,1-2.4,1.5-3.8,1.4v6h14V14L19,14z M5.8,4L3.4,8.2C2.8,9.5,3.5,11,4.7,11.5c1.1,0.5,2.5,0,3.1-1
			c0.3-0.8,1.5-0.8,1.9,0c0.5,1.3,2,1.9,3.2,1.4c0.6-0.3,1.1-0.8,1.4-1.4c0.3-0.8,1.5-0.8,1.9,0c0.5,1.3,2,1.9,3.3,1.4
			c1.3-0.5,1.9-2,1.4-3.3c0-0.1-0.1-0.2-0.2-0.4L18.2,4H5.8L5.8,4z"/>
		<path id="factory_1_" class="st1" d="M10,10.8V3.1c0-0.6,0.6-1,1.2-0.7L21,7.7v14H3V9c0-0.6,0.6-1,1.1-0.7L10,10.8z M12,5.1v8.8
			l-7-3.1v8.9h14V8.9L12,5.1L12,5.1z"/>
	</g>
</g>
<g id="Business">
	<g id="fill_2_">
		<path id="copyright" class="st1" d="M10.3,2.1C17.1,1,23,6.9,21.9,13.7c-0.7,4.1-4,7.5-8.2,8.2C6.9,23,1,17.1,2.1,10.3
			C2.8,6.2,6.2,2.8,10.3,2.1z M12,7c-3.1,0-5.6,2.9-4.9,6.1c0.4,1.9,1.9,3.4,3.8,3.8c1.9,0.4,3.7-0.3,4.8-1.6c0.3-0.4,0.2-1-0.2-1.2
			l-0.4-0.2c-0.3-0.2-0.7-0.1-1,0.1c-1.1,1.2-3,1.3-4.3,0.1c-0.7-0.6-1-1.6-0.9-2.6C9.2,10,10.5,9,12,9c0.9,0,1.6,0.4,2.2,0.9
			c0.3,0.3,0.7,0.4,1,0.2l0.3-0.2C16,9.6,16.1,9,15.7,8.7C14.8,7.6,13.4,7,12,7z"/>
		<path id="network-chart_1_" class="st1" d="M19,3c-1.4,0-2.5,1.1-2.5,2.5c0,0.4,0.1,0.7,0.2,1l-2,2.2C14.1,8.3,13.3,8,12.5,8
			c-0.7,0-1.4,0.2-2,0.6L8.2,6.3l0,0C8.4,5.9,8.5,5.5,8.5,5c0-1.7-1.3-3-3-3s-3,1.3-3,3s1.3,3,3,3C6,8,6.4,7.9,6.8,7.7l0,0L9.1,10
			c-0.4,0.6-0.6,1.3-0.6,2c0,1,0.4,1.9,1,2.6l-2.6,2.6C6.6,17.1,6.3,17,6,17c-1.4,0-2.5,1.1-2.5,2.5S4.6,22,6,22s2.5-1.1,2.5-2.5
			c0-0.3-0.1-0.6-0.2-0.9l2.8-2.8c0.4,0.2,0.9,0.2,1.3,0.2c2.2,0,4-1.8,4-4c0-0.6-0.2-1.2-0.4-1.8l2.1-2.4C18.4,7.9,18.7,8,19,8
			c1.4,0,2.5-1.1,2.5-2.5S20.4,3,19,3z M12.5,14c-1.1,0-2-0.9-2-2s0.9-2,2-2s2,0.9,2,2S13.6,14,12.5,14z"/>
		<path id="slideshow" class="st1" d="M13,17.5v2h3.2c0.4,0,0.8,0.4,0.8,0.8v0.4c0,0.4-0.4,0.8-0.8,0.8H7.8c-0.4,0-0.8-0.4-0.8-0.8
			v-0.4c0-0.4,0.4-0.8,0.8-0.8H11v-2H2.8c-0.4,0-0.8-0.4-0.8-0.8V3.3c0-0.4,0.4-0.8,0.8-0.8h18.4c0.4,0,0.8,0.4,0.8,0.8v13.4
			c0,0.4-0.4,0.8-0.8,0.8H13z M10,8.4v3.2c0,0.6,0.7,1,1.2,0.7l2.6-1.6c0.5-0.3,0.5-1.1,0-1.4l-2.6-1.6C10.7,7.4,10,7.8,10,8.4z"/>
		<path id="note" class="st1" d="M15,14l-0.1,0c-0.5,0.1-0.8,0.4-0.9,0.9l0,0.1v5.9c0,0,0,0.1-0.1,0.1H4c-0.5,0-1-0.4-1-1V3.8
			C3,3.4,3.4,3,3.8,3h16.4C20.6,3,21,3.4,21,3.8v10.1c0,0,0,0.1-0.1,0.1H15z M20.9,16.1l-4.8,4.7c0,0-0.1,0-0.1-0.1v-4.7
			c0,0,0-0.1,0.1-0.1h4.8C20.9,16,20.9,16.1,20.9,16.1z"/>
		<path id="task" class="st1" d="M21,3.8V21c0,0.5-0.4,1-1,1H4.8c-1,0-1.8-0.8-1.8-1.8V3c0-0.5,0.4-1,1-1h15.2C20.2,2,21,2.8,21,3.8
			z M11.3,13.1l-1.9-1.9c-0.3-0.3-0.8-0.3-1.1,0L8,11.5c-0.3,0.3-0.3,0.8,0,1.1l3.3,3.3l5.1-5.1c0.3-0.3,0.3-0.8,0-1.1l-0.3-0.3
			c-0.3-0.3-0.8-0.3-1.1,0L11.3,13.1L11.3,13.1z"/>
		<path id="stat" class="st1" d="M20,11.5c-0.2,0-0.5,0.1-0.7,0.1l-2.4-2C17,9.5,17,9.2,17,9c0-1.4-1.1-2.5-2.5-2.5S12,7.6,12,9
			c0,0.4,0.1,0.8,0.3,1.1l-2.9,3.4c-0.1,0-0.2,0-0.4,0c-0.2,0-0.3,0-0.5,0.1L5.9,11C6,10.8,6,10.7,6,10.5c0-1.1-0.9-2-2-2
			s-2,0.9-2,2s0.9,2,2,2c0.2,0,0.3,0,0.5-0.1L7.1,15C7,15.2,7,15.3,7,15.5c0,1.1,0.9,2,2,2s2-0.9,2-2c0-0.2,0-0.5-0.1-0.7l2.9-3.4
			c0.2,0.1,0.5,0.1,0.7,0.1c0.4,0,0.8-0.1,1.1-0.3l2.4,2c0,0.1,0,0.2,0,0.3c0,1.1,0.9,2,2,2s2-0.9,2-2S21.1,11.5,20,11.5z"/>
		<path id="analyse" class="st1" d="M4.6,8.9c0.4-1,1-1.8,1.7-2.5C7.1,5.6,7.9,5,8.9,4.6c1.9-0.8,4.2-0.8,6.1,0
			c0,1.3,1.1,2.4,2.5,2.4C18.9,7,20,5.9,20,4.5S18.9,2,17.5,2c-0.7,0-1.3,0.3-1.8,0.7c-2.4-1-5.2-1-7.6,0.1C6.9,3.3,5.8,4,4.9,4.9
			C4,5.8,3.3,6.9,2.8,8.1C2.3,9.3,2,10.6,2,12h2C4,10.9,4.2,9.9,4.6,8.9z M19.4,15.1c-0.4,1-1,1.8-1.7,2.5s-1.6,1.3-2.5,1.7
			c-1.9,0.8-4.2,0.8-6.1,0c0-1.3-1.1-2.4-2.5-2.4C5.1,17,4,18.1,4,19.5S5.1,22,6.5,22c0.7,0,1.3-0.3,1.8-0.7C9.4,21.8,10.7,22,12,22
			c1.4,0,2.7-0.3,3.9-0.8c1.2-0.5,2.3-1.2,3.2-2.1s1.6-2,2.1-3.2c0.5-1.2,0.8-2.5,0.8-3.9h-2C20,13.1,19.8,14.1,19.4,15.1z M12,7.5
			c-2.5,0-4.5,2-4.5,4.5s2,4.5,4.5,4.5s4.5-2,4.5-4.5S14.5,7.5,12,7.5z"/>
		<path id="chalkboard" class="st1" d="M20,3.4H4c-1.1,0-2,0.9-2,2v10c0,1.1,0.9,2,2,2h4l-1.3,1.8c-0.3,0.4-0.2,0.9,0.2,1.1l0.3,0.2
			c0.4,0.3,0.9,0.2,1.1-0.2l2.2-3h3l2.2,3c0.3,0.4,0.8,0.4,1.1,0.2l0.3-0.2c0.4-0.3,0.4-0.8,0.2-1.1L16,17.4h4c1.1,0,2-0.9,2-2v-10
			C22,4.3,21.1,3.4,20,3.4z M5.8,12.4h2.4c0.4,0,0.8,0.4,0.8,0.8v0.4c0,0.4-0.4,0.8-0.8,0.8H5.8C5.4,14.4,5,14,5,13.6v-0.4
			C5,12.7,5.4,12.4,5.8,12.4z"/>
		<path id="server_1_" class="st1" d="M20,3H4C2.9,3,2,3.9,2,5v4c0,1.1,0.9,2,2,2h16c1.1,0,2-0.9,2-2V5C22,3.9,21.1,3,20,3z M14.2,8
			h-0.4C13.4,8,13,7.6,13,7.2V6.8C13,6.4,13.4,6,13.8,6h0.4C14.6,6,15,6.4,15,6.8v0.4C15,7.6,14.6,8,14.2,8z M18.2,8h-0.4
			C17.4,8,17,7.6,17,7.2V6.8C17,6.4,17.4,6,17.8,6h0.4C18.6,6,19,6.4,19,6.8v0.4C19,7.6,18.6,8,18.2,8z M20,13H4c-1.1,0-2,0.9-2,2v4
			c0,1.1,0.9,2,2,2h16c1.1,0,2-0.9,2-2v-4C22,13.9,21.1,13,20,13z M14.2,18h-0.4c-0.4,0-0.8-0.4-0.8-0.8v-0.4c0-0.4,0.4-0.8,0.8-0.8
			h0.4c0.4,0,0.8,0.4,0.8,0.8v0.4C15,17.6,14.6,18,14.2,18z M18.2,18h-0.4c-0.4,0-0.8-0.4-0.8-0.8v-0.4c0-0.4,0.4-0.8,0.8-0.8h0.4
			c0.4,0,0.8,0.4,0.8,0.8v0.4C19,17.6,18.6,18,18.2,18z"/>
		<path id="pin" class="st1" d="M15,11.6V6h2V4c0-1.1-0.9-2-2-2H9C7.9,2,7,2.9,7,4v2h2v5.6l-2.7,1.7C6.1,13.5,6,13.7,6,14v2
			c0,0.6,0.4,1,1,1h2h2v3l1,2l1-2v-3h4c0.6,0,1-0.4,1-1v-2c0-0.3-0.1-0.5-0.3-0.7L15,11.6z"/>
		<path id="spreadsheet_1_" class="st1" d="M3,5v14c0,1.1,0.9,2,2,2h14c1.1,0,2-0.9,2-2V5c0-1.1-0.9-2-2-2H5C3.9,3,3,3.9,3,5z
			 M10.8,7h6.4C17.6,7,18,7.4,18,7.8v0.4C18,8.6,17.6,9,17.2,9h-6.4C10.4,9,10,8.6,10,8.2V7.8C10,7.4,10.4,7,10.8,7z M10.8,11h6.4
			c0.4,0,0.8,0.4,0.8,0.8v0.4c0,0.4-0.4,0.8-0.8,0.8h-6.4c-0.4,0-0.8-0.4-0.8-0.8v-0.4C10,11.4,10.4,11,10.8,11z M10.8,15h6.4
			c0.4,0,0.8,0.4,0.8,0.8v0.4c0,0.4-0.4,0.8-0.8,0.8h-6.4c-0.4,0-0.8-0.4-0.8-0.8v-0.4C10,15.4,10.4,15,10.8,15z M6.8,7h0.4
			C7.6,7,8,7.4,8,7.8v0.4C8,8.6,7.6,9,7.2,9H6.8C6.4,9,6,8.6,6,8.2V7.8C6,7.4,6.4,7,6.8,7z M6.8,11h0.4C7.6,11,8,11.4,8,11.8v0.4
			C8,12.6,7.6,13,7.2,13H6.8C6.4,13,6,12.6,6,12.2v-0.4C6,11.4,6.4,11,6.8,11z M6.8,15h0.4C7.6,15,8,15.4,8,15.8v0.4
			C8,16.6,7.6,17,7.2,17H6.8C6.4,17,6,16.6,6,16.2v-0.4C6,15.4,6.4,15,6.8,15z"/>
		<path id="chart" class="st1" d="M19,21c1.1,0,2-0.9,2-2V5c0-1.1-0.9-2-2-2H5C3.9,3,3,3.9,3,5v14c0,1.1,0.9,2,2,2H19z M10.3,10
			l3.3,1.6l1.2-2.4c0.2-0.4,0.7-0.6,1.1-0.4l0.4,0.2c0.4,0.2,0.6,0.7,0.4,1.1l-1.7,3.5c-0.2,0.4-0.7,0.6-1.1,0.4l-3.3-1.6l-1.2,2.4
			c-0.2,0.4-0.7,0.6-1.1,0.4l-0.4-0.2c-0.4-0.2-0.6-0.7-0.4-1.1l1.7-3.5C9.4,10,9.9,9.8,10.3,10z"/>
		<path id="bar-chart" class="st1" d="M3.8,12.5h2.4c0.4,0,0.8,0.4,0.8,0.8v7.4c0,0.4-0.4,0.8-0.8,0.8H3.8c-0.4,0-0.8-0.4-0.8-0.8
			v-7.4C3,12.9,3.4,12.5,3.8,12.5z M17.8,8.5h2.4c0.4,0,0.8,0.4,0.8,0.8v11.4c0,0.4-0.4,0.8-0.8,0.8h-2.4c-0.4,0-0.8-0.4-0.8-0.8
			V9.3C17,8.9,17.4,8.5,17.8,8.5z M10.8,2.5h2.4c0.4,0,0.8,0.4,0.8,0.8v17.4c0,0.4-0.4,0.8-0.8,0.8h-2.4c-0.4,0-0.8-0.4-0.8-0.8V3.3
			C10,2.9,10.4,2.5,10.8,2.5z"/>
		<path id="bar-chart-alt" class="st1" d="M21,19V5c0-1.1-0.9-2-2-2H5C3.9,3,3,3.9,3,5v14c0,1.1,0.9,2,2,2h14C20.1,21,21,20.1,21,19
			z M8.2,18H7.8C7.4,18,7,17.6,7,17.2v-4.4C7,12.4,7.4,12,7.8,12h0.4C8.6,12,9,12.4,9,12.8v4.4C9,17.6,8.6,18,8.2,18z M12.2,18h-0.4
			c-0.4,0-0.8-0.4-0.8-0.8V7.8C11,7.4,11.4,7,11.8,7h0.4C12.6,7,13,7.4,13,7.8v9.4C13,17.6,12.6,18,12.2,18z M16.2,18h-0.4
			c-0.4,0-0.8-0.4-0.8-0.8v-6.4c0-0.4,0.4-0.8,0.8-0.8h0.4c0.4,0,0.8,0.4,0.8,0.8v6.4C17,17.6,16.6,18,16.2,18z"/>
		<path id="pie-chart" class="st1" d="M10.4,3.4v10.2h10.2c-0.5,4.7-4.4,8.4-9.3,8.4C6.2,22,2,17.8,2,12.7C2,7.9,5.7,3.9,10.4,3.4z
			 M12.3,2c5.2,0.4,9.3,4.6,9.7,9.7h-9.7V2z"/>
		<path id="pie-chart-alt_1_" class="st1" d="M12,2C6.5,2,2,6.5,2,12s4.5,10,10,10s10-4.5,10-10S17.5,2,12,2z M12,12V5c4,0,7,3,7,7
			H12z"/>
		<path id="briefcase_1_" class="st1" d="M20,6.5h-3v-2c0-1.1-0.9-2-2-2H9c-1.1,0-2,0.9-2,2v2H4c-1.1,0-2,0.9-2,2v3h20v-3
			C22,7.4,21.1,6.5,20,6.5z M9,4.5h6v2H9V4.5z M13.2,14.5h-2.4c-0.4,0-0.8-0.4-0.8-0.8v-1.2H2v7c0,1.1,0.9,2,2,2h16c1.1,0,2-0.9,2-2
			v-7h-8v1.2C14,14.1,13.6,14.5,13.2,14.5z"/>
		<path id="paperclip_1_" class="st1" d="M21.2,2H2.8C2.4,2,2,2.4,2,2.8v18.4C2,21.6,2.4,22,2.8,22h18.4c0.4,0,0.8-0.4,0.8-0.8V2.8
			C22,2.4,21.6,2,21.2,2z M19.3,14.1L15,18.3c-2.2,2.2-5.7,2.6-8.2,0.7c-2.9-2.3-3.1-6.5-0.6-9.1L11.2,5c1.7-1.7,4.5-1.6,6.1,0.1
			c1.6,1.7,1.6,4.3,0,6l-4.8,4.8c-0.9,0.9-2.3,1.1-3.4,0.4c-1.4-1-1.5-2.9-0.4-4l4.4-4.4c0.3-0.3,0.7-0.3,1,0l0.3,0.3
			c0.3,0.3,0.3,0.7,0,1L10,13.6c-0.3,0.3-0.4,0.9,0,1.2c0.3,0.3,0.9,0.4,1.2,0c0,0,0,0,0,0L16,10c0.9-0.9,1.1-2.3,0.4-3.4
			c-1-1.4-2.9-1.5-4-0.4l-4.9,4.9c-1.9,1.8-1.7,4.9,0.4,6.6c1.1,0.8,2.5,1.1,3.8,0.7c0.7-0.2,1.4-0.6,1.9-1.2l4.4-4.4
			c0.3-0.3,0.7-0.3,1,0l0.2,0.2C19.6,13.4,19.6,13.8,19.3,14.1z"/>
		<path id="target" class="st1" d="M12.9,2.7l0,2.1c3.3,0.4,5.9,3,6.3,6.3h2.1c0.4,0,0.7,0.3,0.7,0.7v0.4c0,0.4-0.3,0.7-0.7,0.7
			l-2.1,0c-0.4,3.3-3,5.9-6.3,6.3l0,2.1c0,0.4-0.3,0.7-0.7,0.7h-0.4c-0.4,0-0.7-0.3-0.7-0.7v-2.1c-3.3-0.4-5.9-3-6.3-6.3l-2.1,0
			c-0.4,0-0.7-0.3-0.7-0.7v-0.4c0-0.4,0.3-0.7,0.7-0.7h2.1c0.4-3.3,3-5.9,6.3-6.3V2.7c0-0.4,0.3-0.7,0.7-0.7h0.4
			C12.6,2,12.9,2.3,12.9,2.7z M12,10.2c-1,0-1.8,0.8-1.8,1.8s0.8,1.8,1.8,1.8s1.8-0.8,1.8-1.8S13,10.2,12,10.2z"/>
		<path id="mail" class="st1" d="M3,3h18c0.6,0,1,0.4,1,1v16c0,0.6-0.4,1-1,1H3c-0.6,0-1-0.4-1-1V4C2,3.4,2.4,3,3,3z M12.1,11.7
			L5.6,6.2L4.4,7.8l7.7,6.6l7.6-6.6l-1.3-1.5L12.1,11.7L12.1,11.7z"/>
		<path id="mail-open" class="st1" d="M2.2,7.8l9.2-5.5c0.3-0.2,0.7-0.2,1,0l9.2,5.5C21.9,7.9,22,8,22,8.2v12.7c0,0.6-0.4,1-1,1H3
			c-0.6,0-1-0.4-1-1V8.2C2,8,2.1,7.9,2.2,7.8z M18.3,9.2l-6.3,5.4L5.6,9.2l-1.3,1.5l7.7,6.6l7.6-6.6C19.7,10.7,18.3,9.2,18.3,9.2z"
			/>
		<path id="inbox" class="st1" d="M3,3h18c0.6,0,1,0.4,1,1v16c0,0.6-0.4,1-1,1H3c-0.6,0-1-0.4-1-1V4C2,3.4,2.4,3,3,3z M9,12
			c0,1.7,1.3,3,3,3s3-1.3,3-3h5V5H4v7H9z"/>
		<path id="at" class="st1" d="M14.5,12c0,1.4-1.1,2.5-2.5,2.5c-1.4,0-2.5-1.1-2.5-2.5c0-1.4,1.1-2.5,2.5-2.5
			C13.4,9.5,14.5,10.6,14.5,12z M22,2.8v18.4c0,0.4-0.4,0.8-0.8,0.8H2.8C2.4,22,2,21.6,2,21.2V2.8C2,2.4,2.4,2,2.8,2h18.4
			C21.6,2,22,2.4,22,2.8z M20.5,12c0-4.8-3.9-8.6-8.7-8.5c-4.4,0.1-8.1,3.8-8.2,8.2c-0.1,4.8,3.7,8.7,8.5,8.7c1.4,0,2.8-0.4,4.1-1
			c0.4-0.2,0.5-0.6,0.3-1l-0.2-0.3c-0.2-0.3-0.6-0.4-0.9-0.2c-1,0.5-2.1,0.8-3.3,0.8c-4.2,0-7.5-3.8-6.6-8.1C5.9,8,8,5.9,10.6,5.4
			c4.3-0.8,8.1,2.5,8.1,6.6v1.3c0,0.7-0.6,1.3-1.3,1.3c-0.7,0-1.3-0.6-1.3-1.3V8.6h-1.7c-1.8-1.3-4.3-1.1-5.7,0.6
			c-1.5,1.7-1.3,4.3,0.3,5.9c1.7,1.6,4.3,1.5,6-0.2c0.7,1,2,1.5,3.2,1.2c1.3-0.4,2.2-1.6,2.2-3V12z"/>
	</g>
	<g id="line_2_">
		<path id="copyright_1_" class="st1" d="M10.3,2.1C17.1,1,23,6.9,21.9,13.7c-0.7,4.1-4,7.5-8.2,8.2C6.9,23,1,17.1,2.1,10.3
			C2.8,6.2,6.2,2.8,10.3,2.1z M13.6,4.1C7.9,3.1,3.1,7.9,4.1,13.6c0.6,3.1,3.1,5.7,6.3,6.3c5.6,1.1,10.5-3.8,9.4-9.4
			C19.3,7.3,16.7,4.7,13.6,4.1z M11,7.1c1.9-0.4,3.7,0.3,4.8,1.6c0.3,0.4,0.2,1-0.2,1.2l-0.3,0.2c-0.3,0.2-0.7,0.1-1-0.1
			c-1.1-1.2-3-1.3-4.3-0.1c-0.7,0.6-1,1.6-0.9,2.6C9.2,14,10.5,15,12,15c0.8,0,1.6-0.3,2.2-0.9c0.3-0.3,0.7-0.4,1-0.2l0.3,0.2
			c0.4,0.3,0.5,0.8,0.2,1.2c-1.6,1.8-4.2,2.2-6.3,1c-2.1-1.2-3-3.8-2-6.2C8,8.6,9.4,7.4,11,7.1z"/>
		<path id="network-chart" class="st1" d="M18.5,3c-1.7,0-3,1.3-3,3c0,0.5,0.1,1,0.4,1.4l-1.1,1.3C14.1,8.3,13.3,8,12.5,8
			c-0.7,0-1.4,0.2-2,0.6L9.1,7.2c0.3-0.5,0.4-1.1,0.4-1.7C9.5,3.6,7.9,2,6,2S2.5,3.6,2.5,5.5S4.1,9,6,9c0.6,0,1.2-0.2,1.7-0.4
			L9.1,10c-0.4,0.6-0.6,1.3-0.6,2c0,1,0.4,1.9,1,2.6l-1.7,1.7l0,0C7.4,16.1,7,16,6.5,16c-1.7,0-3,1.3-3,3s1.3,3,3,3s3-1.3,3-3
			c0-0.5-0.1-0.9-0.3-1.3l0,0l2-2c0.4,0.2,0.9,0.2,1.3,0.2c2.2,0,4-1.8,4-4c0-0.6-0.2-1.2-0.4-1.8l1.3-1.5C17.7,8.9,18.1,9,18.5,9
			c1.7,0,3-1.3,3-3S20.2,3,18.5,3z M6.5,20c-0.6,0-1-0.4-1-1s0.4-1,1-1s1,0.4,1,1S7.1,20,6.5,20z M4.5,5.5C4.5,4.7,5.2,4,6,4
			s1.5,0.7,1.5,1.5S6.8,7,6,7S4.5,6.3,4.5,5.5z M12.5,14c-1.1,0-2-0.9-2-2s0.9-2,2-2s2,0.9,2,2S13.6,14,12.5,14z M18.5,7
			c-0.6,0-1-0.4-1-1s0.4-1,1-1s1,0.4,1,1S19.1,7,18.5,7z"/>
		<path id="slideshow_1_" class="st1" d="M13,17.5v2h3.2c0.4,0,0.8,0.4,0.8,0.8v0.4c0,0.4-0.4,0.8-0.8,0.8H7.8
			c-0.4,0-0.8-0.4-0.8-0.8v-0.4c0-0.4,0.4-0.8,0.8-0.8H11v-2H2.8c-0.4,0-0.8-0.4-0.8-0.8V3.3c0-0.4,0.4-0.8,0.8-0.8h18.4
			c0.4,0,0.8,0.4,0.8,0.8v13.4c0,0.4-0.4,0.8-0.8,0.8H13z M4,4.5v11h16v-11H4z M11.2,7.7l2.6,1.6c0.5,0.3,0.5,1.1,0,1.4l-2.6,1.6
			c-0.5,0.3-1.2-0.1-1.2-0.7V8.4C10,7.8,10.7,7.4,11.2,7.7z"/>
		<path id="note_1_" class="st1" d="M20.8,15.2l-5.5,5.5c-0.1,0.1-0.4,0.2-0.6,0.2L4,21c-0.6,0-1-0.4-1-1V3.8C3,3.4,3.4,3,3.8,3
			h16.4C20.6,3,21,3.4,21,3.8v10.9C21,14.9,20.9,15.1,20.8,15.2z M19,5H5v14h8v-5c0-0.5,0.4-0.9,0.9-1l0.1,0l5,0V5z M18.2,15L15,15
			v3.2L18.2,15z"/>
		<path id="task_1_" class="st1" d="M21,3v18c0,0.5-0.4,1-1,1H4c-0.5,0-1-0.4-1-1V3c0-0.5,0.4-1,1-1h16C20.6,2,21,2.4,21,3z M19,4H5
			v16h14V4z M15,9.4c0.3-0.3,0.8-0.3,1.1,0l0.3,0.3c0.3,0.3,0.3,0.8,0,1.1l-5.1,5.1L8,12.6c-0.3-0.3-0.3-0.8,0-1.1l0.3-0.3
			c0.3-0.3,0.8-0.3,1.1,0l1.9,1.9L15,9.4z"/>
		<path id="stat_1_" class="st1" d="M20,11.5c-0.2,0-0.5,0.1-0.7,0.1l-2.4-2C17,9.5,17,9.2,17,9c0-1.4-1.1-2.5-2.5-2.5S12,7.6,12,9
			c0,0.4,0.1,0.8,0.3,1.1l-2.9,3.4c-0.1,0-0.2,0-0.4,0c-0.2,0-0.3,0-0.5,0.1L5.9,11C6,10.8,6,10.7,6,10.5c0-1.1-0.9-2-2-2
			s-2,0.9-2,2s0.9,2,2,2c0.2,0,0.3,0,0.5-0.1L7.1,15C7,15.2,7,15.3,7,15.5c0,1.1,0.9,2,2,2s2-0.9,2-2c0-0.2,0-0.5-0.1-0.7l2.9-3.4
			c0.2,0.1,0.5,0.1,0.7,0.1c0.4,0,0.8-0.1,1.1-0.3l2.4,2c0,0.1,0,0.2,0,0.3c0,1.1,0.9,2,2,2s2-0.9,2-2S21.1,11.5,20,11.5z M3.9,11.9
			c-0.8,0-1.4-0.6-1.4-1.4s0.6-1.4,1.4-1.4c0.8,0,1.4,0.6,1.4,1.4S4.7,11.9,3.9,11.9z M9,16.9c-0.8,0-1.4-0.6-1.4-1.4
			c0-0.8,0.6-1.4,1.4-1.4c0.8,0,1.4,0.6,1.4,1.4C10.4,16.3,9.8,16.9,9,16.9z M14.5,10.4c-0.8,0-1.4-0.6-1.4-1.4
			c0-0.8,0.6-1.4,1.4-1.4c0.8,0,1.4,0.6,1.4,1.4C15.9,9.8,15.2,10.4,14.5,10.4z M20,14.9c-0.8,0-1.4-0.6-1.4-1.4s0.6-1.4,1.4-1.4
			s1.4,0.6,1.4,1.4S20.7,14.9,20,14.9z"/>
		<path id="analyse_1_" class="st1" d="M2,12h2c0-1.1,0.2-2.1,0.6-3.1c0.4-1,1-1.8,1.7-2.5C7.1,5.6,7.9,5,8.9,4.6
			c1.9-0.8,4.2-0.8,6.1,0c0,1.3,1.1,2.4,2.5,2.4C18.9,7,20,5.9,20,4.5S18.9,2,17.5,2c-0.7,0-1.3,0.3-1.8,0.7c-2.4-1-5.2-1-7.6,0.1
			C6.9,3.3,5.8,4,4.9,4.9C4,5.8,3.3,6.9,2.8,8.1C2.3,9.3,2,10.6,2,12z M19.4,15.1c-0.4,1-1,1.8-1.7,2.5s-1.6,1.3-2.5,1.7
			c-1.9,0.8-4.2,0.8-6.1,0c0-1.3-1.1-2.4-2.5-2.4C5.1,17,4,18.1,4,19.5S5.1,22,6.5,22c0.7,0,1.3-0.3,1.8-0.7C9.4,21.8,10.7,22,12,22
			c1.4,0,2.7-0.3,3.9-0.8c1.2-0.5,2.3-1.2,3.2-2.1s1.6-2,2.1-3.2c0.5-1.2,0.8-2.5,0.8-3.9h-2C20,13.1,19.8,14.1,19.4,15.1z M12,7.5
			c-2.5,0-4.5,2-4.5,4.5s2,4.5,4.5,4.5s4.5-2,4.5-4.5S14.5,7.5,12,7.5z M12,14.5c-1.4,0-2.5-1.1-2.5-2.5s1.1-2.5,2.5-2.5
			s2.5,1.1,2.5,2.5S13.4,14.5,12,14.5z"/>
		<path id="chalkboard_1_" class="st1" d="M20,2.9H4c-1.1,0-2,0.9-2,2v11c0,1.1,0.9,2,2,2h4l-1.3,1.8c-0.3,0.4-0.2,0.9,0.2,1.1
			L7.2,21c0.4,0.3,0.9,0.2,1.1-0.2l2.2-3h3l2.2,3c0.3,0.4,0.8,0.4,1.1,0.2l0.3-0.2c0.4-0.3,0.4-0.8,0.2-1.1L16,17.9h4
			c1.1,0,2-0.9,2-2v-11C22,3.8,21.1,2.9,20,2.9z M4,15.9v-11h16l0,11H4z M6.8,11.9h2.4c0.4,0,0.8,0.4,0.8,0.8v0.4
			c0,0.4-0.4,0.8-0.8,0.8H6.8c-0.4,0-0.8-0.4-0.8-0.8v-0.4C6,12.2,6.4,11.9,6.8,11.9z"/>
		<path id="server" class="st1" d="M20,3H4C2.9,3,2,3.9,2,5v4c0,1.1,0.9,2,2,2h16c1.1,0,2-0.9,2-2V5C22,3.9,21.1,3,20,3z M4,9V5h16
			l0,4H4z M20,13H4c-1.1,0-2,0.9-2,2v4c0,1.1,0.9,2,2,2h16c1.1,0,2-0.9,2-2v-4C22,13.9,21.1,13,20,13z M4,19v-4h16l0,4H4z M17.8,6
			h0.4C18.6,6,19,6.4,19,6.8v0.4C19,7.6,18.6,8,18.2,8h-0.4C17.4,8,17,7.6,17,7.2V6.8C17,6.4,17.4,6,17.8,6z M14.8,6h0.4
			C15.6,6,16,6.4,16,6.8v0.4C16,7.6,15.6,8,15.2,8h-0.4C14.4,8,14,7.6,14,7.2V6.8C14,6.4,14.4,6,14.8,6z M17.8,16h0.4
			c0.4,0,0.8,0.4,0.8,0.8v0.4c0,0.4-0.4,0.8-0.8,0.8h-0.4c-0.4,0-0.8-0.4-0.8-0.8v-0.4C17,16.4,17.4,16,17.8,16z M14.8,16h0.4
			c0.4,0,0.8,0.4,0.8,0.8v0.4c0,0.4-0.4,0.8-0.8,0.8h-0.4c-0.4,0-0.8-0.4-0.8-0.8v-0.4C14,16.4,14.4,16,14.8,16z"/>
		<path id="pin_1_" class="st1" d="M12,22l1-2v-3h5c0.6,0,1-0.4,1-1v-1.6c0-0.5-0.2-1-0.6-1.4L17,11.6V8c0.6,0,1-0.4,1-1V4
			c0-1.1-0.9-2-2-2H8C6.9,2,6,2.9,6,4v3c0,0.6,0.4,1,1,1v3.6L5.6,13C5.2,13.4,5,13.9,5,14.4V16c0,0.6,0.4,1,1,1h5v3L12,22z M8,4h8v2
			H8V4z M7,14.4l1.7-1.7C8.9,12.5,9,12.3,9,12V8h6v4c0,0.3,0.1,0.5,0.3,0.7l1.7,1.7V15H7V14.4z"/>
		<path id="spreadsheet" class="st1" d="M21,5c0-1.1-0.9-2-2-2H5C3.9,3,3,3.9,3,5v14c0,1.1,0.9,2,2,2h14c1.1,0,2-0.9,2-2V5z M5,19V5
			h14l0,14H5z M7.8,7h0.4C8.6,7,9,7.4,9,7.8v0.4C9,8.6,8.6,9,8.2,9H7.8C7.4,9,7,8.6,7,8.2V7.8C7,7.4,7.4,7,7.8,7z M11.8,7h4.4
			C16.6,7,17,7.4,17,7.8v0.4C17,8.6,16.6,9,16.2,9h-4.4C11.4,9,11,8.6,11,8.2V7.8C11,7.4,11.4,7,11.8,7z M7.8,11h0.4
			C8.6,11,9,11.4,9,11.8v0.4C9,12.6,8.6,13,8.2,13H7.8C7.4,13,7,12.6,7,12.2v-0.4C7,11.4,7.4,11,7.8,11z M11.8,11h4.4
			c0.4,0,0.8,0.4,0.8,0.8v0.4c0,0.4-0.4,0.8-0.8,0.8h-4.4c-0.4,0-0.8-0.4-0.8-0.8v-0.4C11,11.4,11.4,11,11.8,11z M7.8,15h0.4
			C8.6,15,9,15.4,9,15.8v0.4C9,16.6,8.6,17,8.2,17H7.8C7.4,17,7,16.6,7,16.2v-0.4C7,15.4,7.4,15,7.8,15z M11.8,15h4.4
			c0.4,0,0.8,0.4,0.8,0.8v0.4c0,0.4-0.4,0.8-0.8,0.8h-4.4c-0.4,0-0.8-0.4-0.8-0.8v-0.4C11,15.4,11.4,15,11.8,15z"/>
		<path id="chart_1_" class="st1" d="M5,21h14c1.1,0,2-0.9,2-2V5c0-1.1-0.9-2-2-2H5C3.9,3,3,3.9,3,5v14C3,20.1,3.9,21,5,21z M5,5h14
			l0,14H5V5z M13.6,11.7L10.3,10c-0.4-0.2-0.9,0-1.1,0.4l-1.7,3.5c-0.2,0.4,0,0.9,0.4,1.1l0.4,0.2c0.4,0.2,0.9,0,1.1-0.4l1.2-2.4
			l3.3,1.6c0.4,0.2,0.9,0,1.1-0.4l1.7-3.5c0.2-0.4,0-0.9-0.4-1.1l-0.4-0.2c-0.4-0.2-0.9,0-1.1,0.4L13.6,11.7z"/>
		<path id="bar-chart_1_" class="st1" d="M3.8,12.5h0.4c0.4,0,0.8,0.4,0.8,0.8v7.4c0,0.4-0.4,0.8-0.8,0.8H3.8
			c-0.4,0-0.8-0.4-0.8-0.8v-7.4C3,12.9,3.4,12.5,3.8,12.5z M19.8,8.5h0.4c0.4,0,0.8,0.4,0.8,0.8v11.4c0,0.4-0.4,0.8-0.8,0.8h-0.4
			c-0.4,0-0.8-0.4-0.8-0.8V9.3C19,8.9,19.4,8.5,19.8,8.5z M11.8,2.5h0.4c0.4,0,0.8,0.4,0.8,0.8v17.4c0,0.4-0.4,0.8-0.8,0.8h-0.4
			c-0.4,0-0.8-0.4-0.8-0.8V3.3C11,2.9,11.4,2.5,11.8,2.5z"/>
		<path id="bar-chart-alt_1_" class="st1" d="M3,5v14c0,1.1,0.9,2,2,2h14c1.1,0,2-0.9,2-2V5c0-1.1-0.9-2-2-2H5C3.9,3,3,3.9,3,5z
			 M19,19H5V5h14L19,19z M11.8,7h0.4C12.6,7,13,7.4,13,7.8v8.4c0,0.4-0.4,0.8-0.8,0.8h-0.4c-0.4,0-0.8-0.4-0.8-0.8V7.8
			C11,7.4,11.4,7,11.8,7z M15.8,10h0.4c0.4,0,0.8,0.4,0.8,0.8v5.4c0,0.4-0.4,0.8-0.8,0.8h-0.4c-0.4,0-0.8-0.4-0.8-0.8v-5.4
			C15,10.4,15.4,10,15.8,10z M7.8,12h0.4C8.6,12,9,12.4,9,12.8v3.4C9,16.6,8.6,17,8.2,17H7.8C7.4,17,7,16.6,7,16.2v-3.4
			C7,12.4,7.4,12,7.8,12z"/>
		<path id="pie-chart_1_" class="st1" d="M10.4,2c0.3,0,0.6,0,0.9,0C17.2,2,22,6.8,22,12.7c0,0.3,0,0.6,0,0.9h-1.4
			c-0.5,4.7-4.4,8.4-9.3,8.4C6.2,22,2,17.8,2,12.7c0-4.8,3.7-8.8,8.4-9.3V2L10.4,2z M10.4,13.6V5.3c-4.1,0.5-7,4.2-6.4,8.3
			c0.5,3.7,3.6,6.5,7.4,6.5c3.8,0,6.9-2.8,7.4-6.5H10.4z M20.1,11.8c-0.4-4.1-3.7-7.4-7.9-7.9v7.9H20.1z"/>
		<path id="pie-chart-alt" class="st1" d="M12,2C6.5,2,2,6.5,2,12s4.5,10,10,10s10-4.5,10-10S17.5,2,12,2z M12,20c-4.4,0-8-3.6-8-8
			s3.6-8,8-8s8,3.6,8,8S16.4,20,12,20z M12,5.2V12h6.8C18.8,8.2,15.8,5.2,12,5.2z"/>
		<path id="briefcase" class="st1" d="M20,6.5h-3v-2c0-1.1-0.9-2-2-2H9c-1.1,0-2,0.9-2,2v2H4c-1.1,0-2,0.9-2,2v11c0,1.1,0.9,2,2,2
			h16c1.1,0,2-0.9,2-2v-11C22,7.4,21.1,6.5,20,6.5z M15,4.5v2H9v-2H15z M8,8.5h8h4v3H4v-3H8z M4,19.5v-6h6v1.2
			c0,0.4,0.4,0.8,0.8,0.8h2.4c0.4,0,0.8-0.4,0.8-0.8v-1.2h6l0,6H4z"/>
		<path id="paperclip" class="st1" d="M14.8,7.6c0.3,0.3,0.3,0.8,0,1.1l-5.1,5.1c-0.4,0.4-0.4,1,0,1.4c0.4,0.4,1,0.4,1.4,0
			c0,0,0,0,0,0l5.6-5.6c1-1,1.3-2.7,0.5-3.9C16,4.2,13.8,4,12.5,5.3l0,0L6.8,11c-2.2,2.1-2,5.7,0.5,7.6c1.2,0.9,2.9,1.3,4.4,0.8
			c0.9-0.3,1.6-0.7,2.2-1.3L19,13c0.3-0.3,0.8-0.3,1.1,0l0.3,0.3c0.3,0.3,0.3,0.8,0,1.1l-4.9,4.9c-2.5,2.5-6.6,3-9.4,0.8
			c-3.4-2.6-3.6-7.5-0.7-10.5l0,0l5.7-5.7c2-1.9,5.2-1.9,7.1,0.1c1.9,1.9,1.9,5,0,6.9l-5.6,5.6c-1,1-2.7,1.3-3.9,0.5
			c-1.6-1.1-1.7-3.3-0.4-4.6l5.1-5.1c0.3-0.3,0.8-0.3,1.1,0L14.8,7.6z"/>
		<path id="target_1_" class="st1" d="M12.9,2.8l0,2c3.3,0.4,5.9,3,6.3,6.3h2c0.4,0,0.8,0.4,0.8,0.8v0.2c0,0.4-0.4,0.8-0.8,0.8l-2,0
			c-0.4,3.3-3,5.9-6.3,6.3l0,2c0,0.4-0.4,0.8-0.8,0.8h-0.2c-0.4,0-0.8-0.4-0.8-0.8v-2c-3.3-0.4-5.9-3-6.3-6.3l-2,0
			c-0.4,0-0.8-0.4-0.8-0.8v-0.2c0-0.4,0.4-0.8,0.8-0.8h2c0.4-3.3,3-5.9,6.3-6.3v-2c0-0.4,0.4-0.8,0.8-0.8h0.2
			C12.5,2,12.9,2.4,12.9,2.8z M12,6.5C9,6.5,6.5,9,6.5,12S9,17.5,12,17.5s5.5-2.4,5.5-5.5S15,6.5,12,6.5z M12,10.2
			c1,0,1.8,0.8,1.8,1.8S13,13.8,12,13.8S10.2,13,10.2,12S11,10.2,12,10.2z"/>
		<path id="mail_1_" class="st1" d="M3,3h18c0.6,0,1,0.4,1,1v16c0,0.6-0.4,1-1,1H3c-0.6,0-1-0.4-1-1V4C2,3.4,2.4,3,3,3z M20,7.2
			l-7.9,7.1L4,7.2V19h16V7.2z M4.5,5l7.6,6.7L19.5,5H4.5z"/>
		<path id="mail-open_1_" class="st1" d="M2.2,7.8l9.2-5.5c0.3-0.2,0.7-0.2,1,0l9.2,5.5C21.9,7.9,22,8,22,8.2v12.7c0,0.6-0.4,1-1,1
			H3c-0.6,0-1-0.4-1-1V8.2C2,8,2.1,7.9,2.2,7.8z M4,9v10.9h16V9l-8-4.8L4,9L4,9z M12.1,14.6l5.3-4.5l1.3,1.5l-6.6,5.5l-6.7-5.5
			l1.3-1.5C6.6,10.1,12.1,14.6,12.1,14.6z"/>
		<path id="inbox_1_" class="st1" d="M3,3h18c0.6,0,1,0.4,1,1v16c0,0.6-0.4,1-1,1H3c-0.6,0-1-0.4-1-1V4C2,3.4,2.4,3,3,3z M20,14
			h-3.4c-1.1,2.5-4.1,3.7-6.6,2.6c-1.2-0.5-2.1-1.4-2.6-2.6H4v5h16V14z M20,12V5H4v7h5c0,1.7,1.3,3,3,3s3-1.3,3-3H20z"/>
		<path id="at_1_" class="st1" d="M20,12c0-4.9-4.5-8.8-9.6-7.8c-3.1,0.6-5.6,3.1-6.2,6.2C3.2,15.5,7.1,20,12,20
			c1.3,0,2.7-0.3,3.8-1c0.4-0.2,0.8-0.1,1,0.3l0.2,0.3c0.3,0.4,0.1,0.9-0.3,1.2C15.3,21.6,13.7,22,12,22C6.4,22,1.8,17.4,2,11.7
			C2.1,6.5,6.5,2.1,11.7,2C17.4,1.8,22,6.4,22,12l0,1.3c0,1.6-1,3.1-2.6,3.5c-1.5,0.4-3-0.2-3.8-1.4c-1.9,2-5,2.1-7,0.2
			c-1.9-1.8-2.1-4.9-0.4-6.9C10,6.7,12.9,6.4,15,8h2v5.5c0,0.8,0.7,1.5,1.5,1.5s1.5-0.7,1.5-1.5V12z M12,9c-1.7,0-3,1.3-3,3
			s1.3,3,3,3s3-1.3,3-3S13.7,9,12,9z"/>
	</g>
</g>
</svg>
